<svg width="18" height="18" viewBox="0 0 18 18" fill="none" xmlns="http://www.w3.org/2000/svg">
<path d="M8.9995 18.0007C6.6134 17.9978 4.32588 17.0461 2.63875 15.3544C0.951614 13.6627 0.00263948 11.3691 0 8.97675C0.498698 -2.99425 17.5073 -2.99025 18 8.97675C17.9974 11.3693 17.0482 13.663 15.3609 15.3548C13.6735 17.0465 11.3858 17.9981 8.9995 18.0007ZM8.9995 1.66475C7.06602 1.66713 5.21241 2.43827 3.84523 3.80902C2.47805 5.17977 1.70892 7.03822 1.70654 8.97675C2.1055 18.6768 15.8945 18.6768 16.2935 8.97675C16.2911 7.03805 15.5218 5.17944 14.1544 3.80866C12.787 2.43788 10.9332 1.66687 8.9995 1.66475ZM12.7537 8.97675C12.7537 9.20351 12.6639 9.42098 12.5039 9.58133C12.344 9.74167 12.1271 9.83175 11.9009 9.83175H9.98094V11.7557C9.98094 11.9826 9.89104 12.2002 9.73102 12.3607C9.571 12.5211 9.35397 12.6112 9.12767 12.6112C8.90137 12.6112 8.68433 12.5211 8.52431 12.3607C8.36429 12.2002 8.27439 11.9826 8.27439 11.7557V9.83275H6.35541C6.1291 9.83275 5.91207 9.74262 5.75205 9.58218C5.59203 9.42174 5.50213 9.20414 5.50213 8.97725C5.50213 8.75036 5.59203 8.53276 5.75205 8.37232C5.91207 8.21188 6.1291 8.12175 6.35541 8.12175H8.27439V6.19775C8.27439 5.97086 8.36429 5.75326 8.52431 5.59282C8.68433 5.43238 8.90137 5.34225 9.12767 5.34225C9.35397 5.34225 9.571 5.43238 9.73102 5.59282C9.89104 5.75326 9.98094 5.97086 9.98094 6.19775V8.12175H11.8999C12.012 8.12162 12.123 8.14364 12.2266 8.18655C12.3302 8.22945 12.4243 8.29241 12.5036 8.37182C12.5829 8.45123 12.6458 8.54553 12.6887 8.64932C12.7316 8.75312 12.7537 8.86439 12.7537 8.97675Z" fill="#2787BD"/>
</svg>
