<svg width="18" height="18" viewBox="0 0 18 18" fill="none" xmlns="http://www.w3.org/2000/svg">
<path fill-rule="evenodd" clip-rule="evenodd" d="M2.63875 15.3544C4.32588 17.0461 6.6134 17.9978 8.9995 18.0007C11.3858 17.9981 13.6735 17.0465 15.3609 15.3548C17.0482 13.663 17.9974 11.3693 18 8.97675C17.5073 -2.99025 0.498698 -2.99425 0 8.97675C0.00263948 11.3691 0.951614 13.6627 2.63875 15.3544ZM3.84523 3.80901C5.21241 2.43826 7.06602 1.66713 8.9995 1.66475C10.9332 1.66687 12.787 2.43788 14.1544 3.80866C15.5218 5.17944 16.2911 7.03804 16.2935 8.97675C15.8945 18.6768 2.1055 18.6768 1.70654 8.97675C1.70892 7.03822 2.47805 5.17976 3.84523 3.80901ZM7 12.1267C7 12.3581 7.09423 12.5801 7.26206 12.7439C7.34506 12.8252 7.44378 12.8897 7.55246 12.9336C7.66115 12.9776 7.7777 13.0001 7.89537 13C8.01303 13 8.12954 12.9774 8.23821 12.9335C8.34688 12.8895 8.44555 12.8251 8.52861 12.7439L11.7383 9.61683C11.906 9.45303 12.0001 9.23106 12 8.99966C12.0001 8.76826 11.906 8.54628 11.7383 8.38248L8.52861 5.25545C8.3606 5.09188 8.13285 5 7.89537 5C7.65789 5 7.43008 5.09188 7.26206 5.25545C7.09423 5.4192 7 5.64117 7 5.87262C7 6.10406 7.09423 6.32605 7.26206 6.4898L9.83634 8.99966L7.26206 11.5095C7.09423 11.6733 7 11.8952 7 12.1267Z" fill="#2787BD"/>
</svg>
