<svg width="40" height="40" viewBox="0 0 40 40" fill="none" xmlns="http://www.w3.org/2000/svg">
<g filter="url(#filter0_d_3_750)">
<path d="M20.0006 31C19.1731 31 18.3795 30.6769 17.7944 30.1019C17.2093 29.5269 16.8806 28.7469 16.8806 27.9337V27.9082C16.8804 27.731 16.8257 27.5581 16.7236 27.4122C16.6215 27.2662 16.4768 27.1541 16.3086 27.0905C15.3569 26.7233 14.4681 26.2148 13.6732 25.5829C13.5333 25.4692 13.3616 25.3999 13.1808 25.384C13 25.3682 12.8185 25.4065 12.6603 25.494H12.654C11.9337 25.8921 11.0823 25.9939 10.2858 25.7774C9.48927 25.5608 8.81226 25.0433 8.40253 24.338C8.20128 23.9881 8.07223 23.6027 8.0228 23.2037C7.97336 22.8048 8.00451 22.4002 8.11445 22.0131C8.22439 21.626 8.41097 21.264 8.66349 20.9479C8.91602 20.6318 9.22952 20.3677 9.58605 20.1709L9.59853 20.1637C9.75252 20.0786 9.8772 19.9502 9.95667 19.7951C10.0361 19.64 10.0668 19.4652 10.0447 19.2929C9.91223 18.3606 9.91503 17.4146 10.053 16.4831C10.0764 16.3075 10.0457 16.129 9.96489 15.9707C9.88407 15.8124 9.75682 15.6815 9.59957 15.5949L9.58293 15.5857C9.22702 15.3883 8.91421 15.1238 8.66241 14.8074C8.41062 14.491 8.22478 14.129 8.11552 13.7419C8.00627 13.3549 7.97575 12.9504 8.02572 12.5518C8.07568 12.1531 8.20514 11.7681 8.40669 11.4186C8.81662 10.7135 9.49363 10.1962 10.2901 9.97965C11.0865 9.76309 11.9378 9.86482 12.6582 10.2627L12.7206 10.2974C12.8788 10.3842 13.0599 10.4223 13.2403 10.4066C13.4208 10.3909 13.5923 10.3223 13.7325 10.2095C14.5123 9.59852 15.3805 9.10553 16.3086 8.74688C16.4771 8.68343 16.6222 8.5714 16.7249 8.42548C16.8275 8.27957 16.8829 8.10658 16.8837 7.9292C16.9196 7.14049 17.2637 6.39579 17.8443 5.85016C18.4249 5.30452 19.1973 5 20.0006 5C20.8039 5 21.5763 5.30452 22.1569 5.85016C22.7375 6.39579 23.0815 7.14049 23.1175 7.9292V7.94351C23.1181 8.12038 23.1729 8.29296 23.2748 8.43879C23.3766 8.58463 23.5207 8.69697 23.6884 8.76119C24.6065 9.12169 25.4651 9.61389 26.2364 10.2218C26.3766 10.3353 26.5484 10.4046 26.7293 10.4206C26.9102 10.4367 27.0918 10.3987 27.2504 10.3117L27.3419 10.2606C28.0627 9.86262 28.9144 9.76103 29.7111 9.97799C30.5079 10.1949 31.1849 10.7128 31.5945 11.4186C31.7967 11.7685 31.9266 12.1542 31.9766 12.5536C32.0267 12.953 31.9961 13.3581 31.8864 13.7458C31.7767 14.1335 31.5902 14.496 31.3375 14.8127C31.0849 15.1293 30.771 15.3938 30.4141 15.5908L30.3434 15.6307C30.1891 15.7156 30.0642 15.8438 29.9847 15.999C29.9051 16.1542 29.8747 16.3292 29.8972 16.5015C30.0316 17.4188 30.0351 18.3501 29.9076 19.2684C29.8857 19.4405 29.9163 19.6152 29.9956 19.7702C30.0748 19.9253 30.1991 20.0537 30.3527 20.1392L30.4151 20.1739C30.7726 20.3707 31.0868 20.6353 31.3394 20.9523C31.5921 21.2694 31.7781 21.6326 31.8867 22.0209C32.0445 22.6039 32.0242 23.2198 31.8283 23.7916C31.6324 24.3634 31.2696 24.8658 30.7851 25.2364C30.3007 25.6069 29.7159 25.8291 29.1038 25.8753C28.4917 25.9215 27.8793 25.7896 27.343 25.496L27.3066 25.4756C27.1471 25.3877 26.9643 25.3495 26.7822 25.3662C26.6002 25.3828 26.4276 25.4534 26.2874 25.5686C25.5029 26.1953 24.6262 26.7015 23.6874 27.07C23.5201 27.1344 23.3766 27.2469 23.2754 27.3928C23.1743 27.5387 23.1203 27.7112 23.1206 27.8877V27.9337C23.1206 28.7469 22.7919 29.5269 22.2068 30.1019C21.6216 30.6769 20.8281 31 20.0006 31ZM13.1033 23.3343C13.7881 23.3357 14.4516 23.5685 14.9826 23.9935C15.6124 24.4947 16.3167 24.898 17.0709 25.1894C17.6288 25.4017 18.1081 25.7753 18.4455 26.2609C18.7829 26.7465 18.9625 27.3212 18.9606 27.9092V27.9347C18.9606 28.2058 19.0702 28.4658 19.2652 28.6575C19.4602 28.8491 19.7248 28.9568 20.0006 28.9568C20.2764 28.9568 20.5409 28.8491 20.736 28.6575C20.931 28.4658 21.0406 28.2058 21.0406 27.9347V27.8887C21.0387 27.3037 21.2163 26.7317 21.5502 26.2474C21.8842 25.7631 22.359 25.3891 22.9126 25.174C23.658 24.8843 24.3543 24.4853 24.978 23.9905C25.4421 23.6149 26.0113 23.3867 26.6102 23.3362C27.2091 23.2856 27.8096 23.4151 28.332 23.7073L28.3653 23.7257C28.6063 23.8586 28.891 23.8924 29.1573 23.8198C29.4236 23.7473 29.6499 23.5742 29.787 23.3384C29.854 23.2222 29.897 23.0941 29.9134 22.9615C29.9299 22.8289 29.9195 22.6944 29.8829 22.5658C29.8462 22.4372 29.7841 22.3169 29.7 22.212C29.6159 22.1071 29.5115 22.0195 29.3928 21.9544L29.3283 21.9187C28.8117 21.6337 28.3944 21.2024 28.1307 20.681C27.8671 20.1596 27.7695 19.5722 27.8505 18.9955C27.9517 18.2661 27.9489 17.5265 27.8422 16.7979C27.7617 16.2193 27.8593 15.6303 28.1223 15.1066C28.3853 14.5829 28.8017 14.1486 29.3179 13.8594L29.3918 13.8175C29.511 13.7527 29.6159 13.6652 29.7005 13.5602C29.7851 13.4553 29.8477 13.3349 29.8846 13.206C29.9216 13.0771 29.9322 12.9423 29.9157 12.8094C29.8993 12.6764 29.8563 12.548 29.789 12.4315C29.6515 12.1957 29.4246 12.0229 29.1579 11.9507C28.8912 11.8785 28.6063 11.9128 28.3653 12.0462L28.2769 12.0953C27.7572 12.3853 27.1606 12.5145 26.565 12.466C25.9694 12.4175 25.4025 12.1935 24.9385 11.8234C24.3275 11.3397 23.6469 10.9477 22.9188 10.6602C22.3638 10.4458 21.8876 10.0717 21.5523 9.58707C21.2171 9.10239 21.0384 8.52959 21.0395 7.94351V7.92307C21.0395 7.65199 20.93 7.39202 20.7349 7.20033C20.5399 7.00865 20.2754 6.90097 19.9995 6.90097C19.7237 6.90097 19.4592 7.00865 19.2642 7.20033C19.0691 7.39202 18.9595 7.65199 18.9595 7.92307C18.9608 8.51145 18.7806 9.0864 18.4427 9.57212C18.1048 10.0578 17.6251 10.4315 17.0668 10.6439C16.3313 10.9281 15.6432 11.3188 15.0252 11.803C14.5615 12.1698 13.9962 12.3913 13.4028 12.4387C12.8094 12.4861 12.2152 12.3572 11.6972 12.0687L11.638 12.036C11.3969 11.9032 11.1122 11.8693 10.8459 11.9419C10.5796 12.0145 10.3533 12.1875 10.2163 12.4234C10.1493 12.5396 10.1063 12.6676 10.0898 12.8002C10.0734 12.9328 10.0838 13.0673 10.1204 13.1959C10.157 13.3246 10.2192 13.4448 10.3033 13.5497C10.3874 13.6546 10.4918 13.7422 10.6104 13.8073L10.6302 13.8185C11.15 14.1096 11.5691 14.5471 11.8334 15.0745C12.0978 15.6019 12.1952 16.1951 12.1132 16.7775C12.0036 17.5168 12.0012 18.2677 12.106 19.0077C12.189 19.586 12.0921 20.1755 11.8279 20.6987C11.5638 21.2218 11.1448 21.6543 10.626 21.9391L10.6104 21.9483C10.4909 22.0133 10.3857 22.101 10.3009 22.2063C10.2161 22.3116 10.1534 22.4323 10.1164 22.5616C10.0798 22.6897 10.0695 22.8238 10.0861 22.9559C10.1027 23.0881 10.1459 23.2156 10.2132 23.3312C10.3508 23.567 10.5776 23.7399 10.8443 23.8121C11.111 23.8842 11.3959 23.8499 11.6369 23.7165C12.0834 23.4664 12.5884 23.3346 13.1023 23.3343H13.1033ZM20.0006 23.2883C18.9217 23.2883 17.8671 22.9739 16.9701 22.3848C16.073 21.7957 15.3739 20.9585 14.961 19.9789C14.5482 18.9993 14.4401 17.9214 14.6506 16.8815C14.8611 15.8416 15.3806 14.8864 16.1435 14.1366C16.9063 13.3869 17.8783 12.8763 18.9364 12.6695C19.9945 12.4626 21.0913 12.5688 22.088 12.9745C23.0848 13.3803 23.9367 14.0674 24.5361 14.949C25.1355 15.8306 25.4554 16.8671 25.4554 17.9274C25.4543 19.349 24.8793 20.7122 23.8566 21.7176C22.8339 22.7231 21.4471 23.2887 20.0006 23.2903V23.2883ZM20.0006 14.6096C19.3327 14.6096 18.6798 14.8043 18.1245 15.1689C17.5692 15.5336 17.1364 16.0519 16.8808 16.6584C16.6252 17.2648 16.5583 17.9321 16.6886 18.5758C16.8189 19.2196 17.1405 19.811 17.6128 20.2751C18.085 20.7392 18.6867 21.0553 19.3418 21.1834C19.9968 21.3114 20.6758 21.2457 21.2929 20.9945C21.9099 20.7433 22.4373 20.318 22.8084 19.7722C23.1794 19.2264 23.3775 18.5848 23.3775 17.9284C23.3761 17.0488 23.0198 16.2057 22.3868 15.5839C21.7537 14.9621 20.8956 14.6125 20.0006 14.6117V14.6096Z" fill="url(#paint0_linear_3_750)"/>
</g>
<defs>
<filter id="filter0_d_3_750" x="0" y="0" width="40" height="42" filterUnits="userSpaceOnUse" color-interpolation-filters="sRGB">
<feFlood flood-opacity="0" result="BackgroundImageFix"/>
<feColorMatrix in="SourceAlpha" type="matrix" values="0 0 0 0 0 0 0 0 0 0 0 0 0 0 0 0 0 0 127 0" result="hardAlpha"/>
<feOffset dy="3"/>
<feGaussianBlur stdDeviation="4"/>
<feComposite in2="hardAlpha" operator="out"/>
<feColorMatrix type="matrix" values="0 0 0 0 0 0 0 0 0 0 0 0 0 0 0 0 0 0 0.25 0"/>
<feBlend mode="normal" in2="BackgroundImageFix" result="effect1_dropShadow_3_750"/>
<feBlend mode="normal" in="SourceGraphic" in2="effect1_dropShadow_3_750" result="shape"/>
</filter>
<linearGradient id="paint0_linear_3_750" x1="15.676" y1="8.25" x2="24.3024" y2="32.0641" gradientUnits="userSpaceOnUse">
<stop stop-color="#00BCC8"/>
<stop offset="1" stop-color="#2787BD"/>
</linearGradient>
</defs>
</svg>
