<svg width="42" height="40" viewBox="0 0 42 40" fill="none" xmlns="http://www.w3.org/2000/svg">
<g filter="url(#filter0_d_3_748)">
<path d="M27.6455 13.4308C27.3893 13.5147 27.1103 13.4937 26.8696 13.3725C26.6289 13.2512 26.4461 13.0396 26.3614 12.784C25.9326 11.4856 25.1921 10.3117 24.2045 9.3648C23.2169 8.41789 22.0122 7.72675 20.6955 7.3517C19.3788 6.97665 17.9903 6.9291 16.651 7.2132C15.3117 7.4973 14.0624 8.10441 13.0121 8.98153C11.9618 9.85866 11.1425 10.9791 10.6257 12.2452C10.1089 13.5112 9.91022 14.8843 10.0471 16.2447C10.184 17.605 10.6522 18.9112 11.411 20.0493C12.1697 21.1874 13.1959 22.1227 14.3999 22.7736C14.5255 22.8325 14.6378 22.9163 14.7298 23.02C14.8218 23.1237 14.8916 23.2451 14.9349 23.3767C14.9783 23.5083 14.9942 23.6474 14.9818 23.7854C14.9693 23.9233 14.9288 24.0573 14.8626 24.1791C14.7965 24.3009 14.7061 24.4079 14.5971 24.4935C14.488 24.5792 14.3626 24.6417 14.2284 24.6772C14.0943 24.7127 13.9544 24.7204 13.8171 24.7C13.6799 24.6795 13.5483 24.6313 13.4305 24.5582C4.00465 19.3377 7.61163 5.11389 18.3928 5C20.585 5.00523 22.7201 5.69817 24.4965 6.9809C26.2728 8.26364 27.6006 10.0713 28.2922 12.1485C28.3762 12.4043 28.3552 12.6829 28.2338 12.9233C28.1124 13.1637 27.9005 13.3462 27.6445 13.4308H27.6455ZM21.2911 16.9287C21.2883 16.5805 21.2116 16.2367 21.0661 15.9202C20.9206 15.6036 20.7095 15.3215 20.4468 15.0923C19.9208 14.634 19.2447 14.3844 18.5466 14.3907C18.0537 14.3907 17.682 14.172 17.682 13.8822C17.682 13.7474 17.7357 13.6181 17.8312 13.5227C17.9267 13.4274 18.0562 13.3738 18.1912 13.3738C18.7296 13.38 19.2613 13.4945 19.7544 13.7104C20.0018 13.7909 20.2707 13.7738 20.5059 13.6626C20.741 13.5513 20.9247 13.3544 21.019 13.1123C21.1134 12.8701 21.1113 12.6011 21.0132 12.3604C20.9151 12.1197 20.7285 11.9256 20.4917 11.818C20.2051 11.7053 19.9123 11.6089 19.6149 11.5292V11.2943C19.6149 11.0247 19.5076 10.766 19.3166 10.5753C19.1256 10.3846 18.8666 10.2775 18.5965 10.2775C18.3264 10.2775 18.0674 10.3846 17.8764 10.5753C17.6855 10.766 17.5782 11.0247 17.5782 11.2943V11.4194C14.5761 12.3264 15.2064 16.4305 18.5436 16.4213C18.9295 16.4213 19.2564 16.6542 19.2564 16.9298C19.2514 17.0672 19.1928 17.1973 19.0931 17.2923C18.9934 17.3873 18.8606 17.4396 18.7228 17.4382C18.1284 17.4059 17.5434 17.2757 16.9916 17.0528C16.7451 16.9716 16.4769 16.9874 16.2418 17.097C16.0066 17.2066 15.8222 17.4017 15.7263 17.6425C15.6303 17.8833 15.6301 18.1516 15.7256 18.3926C15.8211 18.6336 16.0051 18.829 16.2401 18.9391C16.6746 19.1104 17.1234 19.2431 17.5812 19.3356V19.4678C17.5812 19.7375 17.6885 19.9962 17.8795 20.1869C18.0705 20.3776 18.3295 20.4847 18.5996 20.4847C18.8697 20.4847 19.1287 20.3776 19.3196 20.1869C19.5106 19.9962 19.6179 19.7375 19.6179 19.4678V19.3102C20.1071 19.1317 20.5297 18.8077 20.8287 18.3819C21.1278 17.956 21.2888 17.4488 21.29 16.9287H21.2911ZM32.9817 24.1881C32.7116 24.1881 32.4526 24.2952 32.2616 24.4859C32.0706 24.6766 31.9633 24.9352 31.9633 25.2049V29.974C31.9633 30.2437 32.0706 30.5023 32.2616 30.693C32.4526 30.8837 32.7116 30.9908 32.9817 30.9908C33.2517 30.9908 33.5108 30.8837 33.7017 30.693C33.8927 30.5023 34 30.2437 34 29.974V25.2029C33.9995 24.9336 33.8919 24.6754 33.701 24.4852C33.5101 24.2949 33.2514 24.1881 32.9817 24.1881ZM28.9154 25.3554C28.6453 25.3554 28.3863 25.4626 28.1953 25.6533C28.0043 25.844 27.8971 26.1026 27.8971 26.3723V29.974C27.8971 30.2437 28.0043 30.5023 28.1953 30.693C28.3863 30.8837 28.6453 30.9908 28.9154 30.9908C29.1855 30.9908 29.4445 30.8837 29.6355 30.693C29.8265 30.5023 29.9338 30.2437 29.9338 29.974V26.3703C29.9332 26.1009 29.8257 25.8428 29.6348 25.6525C29.4438 25.4623 29.1851 25.3554 28.9154 25.3554ZM24.8492 27.5925C24.5791 27.5925 24.3201 27.6996 24.1291 27.8903C23.9381 28.081 23.8308 28.3397 23.8308 28.6094V29.974C23.8308 30.2437 23.9381 30.5023 24.1291 30.693C24.3201 30.8837 24.5791 30.9908 24.8492 30.9908C25.1192 30.9908 25.3783 30.8837 25.5692 30.693C25.7602 30.5023 25.8675 30.2437 25.8675 29.974V28.6033C25.867 28.3339 25.7594 28.0758 25.5685 27.8856C25.3776 27.6953 25.1189 27.5884 24.8492 27.5884V27.5925ZM20.7829 26.7292C20.5128 26.7292 20.2538 26.8363 20.0628 27.027C19.8718 27.2177 19.7646 27.4764 19.7646 27.7461V29.9831C19.7646 30.2528 19.8718 30.5115 20.0628 30.7022C20.2538 30.8929 20.5128 31 20.7829 31C21.053 31 21.312 30.8929 21.503 30.7022C21.694 30.5115 21.8012 30.2528 21.8012 29.9831V27.7461C21.8018 27.6121 21.7758 27.4793 21.7248 27.3554C21.6738 27.2315 21.5988 27.1189 21.5041 27.024C21.4093 26.9292 21.2968 26.8539 21.1728 26.8026C21.0489 26.7513 20.916 26.725 20.7819 26.7251L20.7829 26.7292ZM13.1362 30.9888C12.9354 30.9874 12.7395 30.9267 12.5732 30.8144C12.4068 30.7022 12.2774 30.5433 12.2013 30.3578C12.1251 30.1723 12.1055 29.9685 12.145 29.7719C12.1845 29.5753 12.2814 29.3948 12.4233 29.253L18.3144 23.4051L18.3511 23.3705C18.9721 22.8107 19.7713 22.4878 20.6075 22.459C21.4437 22.4301 22.2632 22.6972 22.9214 23.2129L23.007 23.2749L23.0375 23.2983C23.3418 23.5378 23.7259 23.6529 24.112 23.6202C24.4981 23.5876 24.8573 23.4096 25.117 23.1224L25.1312 23.1061L28.7331 19.2767C28.9214 19.0952 29.1725 18.993 29.4342 18.9914C29.6959 18.9899 29.9482 19.089 30.1387 19.2682C30.3292 19.4474 30.4433 19.693 30.4573 19.954C30.4712 20.2149 30.384 20.4713 30.2138 20.6698L26.619 24.4921C26.0147 25.1561 25.1815 25.5676 24.2863 25.6443C23.3911 25.7211 22.4999 25.4574 21.7911 24.906L21.7055 24.8429L21.675 24.8195C21.3959 24.5984 21.0479 24.482 20.6917 24.4907C20.3355 24.4994 19.9937 24.6327 19.7259 24.8673L13.851 30.6939C13.6614 30.8818 13.4053 30.9877 13.1382 30.9888H13.1362ZM33.999 21.1416V18.3961C33.999 17.587 33.6771 16.8111 33.1042 16.239C32.5313 15.6669 31.7542 15.3455 30.9439 15.3455H28.1944C27.9243 15.3455 27.6653 15.4526 27.4743 15.6433C27.2834 15.834 27.1761 16.0927 27.1761 16.3624C27.1761 16.632 27.2834 16.8907 27.4743 17.0814C27.6653 17.2721 27.9243 17.3792 28.1944 17.3792H30.9439C31.214 17.3792 31.473 17.4863 31.664 17.677C31.855 17.8677 31.9623 18.1264 31.9623 18.3961V21.1416C31.9623 21.4113 32.0696 21.6699 32.2606 21.8606C32.4515 22.0513 32.7106 22.1584 32.9806 22.1584C33.2507 22.1584 33.5097 22.0513 33.7007 21.8606C33.8917 21.6699 33.999 21.4113 33.999 21.1416Z" fill="url(#paint0_linear_3_748)"/>
</g>
<defs>
<filter id="filter0_d_3_748" x="0" y="0" width="42" height="42" filterUnits="userSpaceOnUse" color-interpolation-filters="sRGB">
<feFlood flood-opacity="0" result="BackgroundImageFix"/>
<feColorMatrix in="SourceAlpha" type="matrix" values="0 0 0 0 0 0 0 0 0 0 0 0 0 0 0 0 0 0 127 0" result="hardAlpha"/>
<feOffset dy="3"/>
<feGaussianBlur stdDeviation="4"/>
<feComposite in2="hardAlpha" operator="out"/>
<feColorMatrix type="matrix" values="0 0 0 0 0 0 0 0 0 0 0 0 0 0 0 0 0 0 0.25 0"/>
<feBlend mode="normal" in2="BackgroundImageFix" result="effect1_dropShadow_3_748"/>
<feBlend mode="normal" in="SourceGraphic" in2="effect1_dropShadow_3_748" result="shape"/>
</filter>
<linearGradient id="paint0_linear_3_748" x1="16.3157" y1="8.25" x2="24.4175" y2="32.4798" gradientUnits="userSpaceOnUse">
<stop stop-color="#00BCC8"/>
<stop offset="1" stop-color="#2787BD"/>
</linearGradient>
</defs>
</svg>
