<svg width="42" height="40" viewBox="0 0 42 40" fill="none" xmlns="http://www.w3.org/2000/svg">
<g filter="url(#filter0_d_3_749)">
<path d="M27.9064 31H14.0936C12.4783 30.9973 10.93 30.3544 9.78778 29.2123C8.64559 28.0701 8.00272 26.5217 8.00004 24.9064V18.8128C7.99571 17.6487 8.39217 16.5186 9.12281 15.6124C9.85344 14.7061 10.8737 14.0789 12.0122 13.8362V11.0966C12.0141 9.48082 12.6566 7.93167 13.7989 6.78882C14.9412 5.64598 16.49 5.00269 18.1058 5H27.9064C29.5223 5.00269 31.0711 5.64598 32.2134 6.78882C33.3556 7.93167 33.9982 9.48082 34 11.0966V24.9064C33.9973 26.5217 33.3545 28.0701 32.2123 29.2123C31.0701 30.3544 29.5217 30.9973 27.9064 31ZM12.0122 15.939C11.4247 16.1529 10.9186 16.5447 10.5641 17.0598C10.2097 17.5749 10.0246 18.1876 10.0346 18.8128V24.9064C10.0365 25.9826 10.4647 27.0143 11.2254 27.7756C11.9861 28.5368 13.0174 28.9658 14.0936 28.9685H27.9064C28.9832 28.9666 30.0153 28.538 30.7767 27.7766C31.538 27.0153 31.9666 25.9832 31.9685 24.9064V11.0966C31.9685 10.0187 31.5408 8.98473 30.7792 8.22182C30.0176 7.4589 28.9844 7.02935 27.9064 7.02747H18.1058C17.0279 7.02935 15.9947 7.4589 15.2331 8.22182C14.4715 8.98473 14.0438 10.0187 14.0438 11.0966V25.1088C14.0438 25.3787 13.9366 25.6374 13.7458 25.8282C13.555 26.019 13.2963 26.1261 13.0265 26.1261C12.7567 26.1261 12.4979 26.019 12.3071 25.8282C12.1164 25.6374 12.0092 25.3787 12.0092 25.1088L12.0122 15.939ZM29.938 11.5504C29.938 11.2806 29.8308 11.0218 29.64 10.831C29.4492 10.6402 29.1905 10.5331 28.9207 10.5331H17.0906C16.8208 10.5331 16.562 10.6402 16.3712 10.831C16.1805 11.0218 16.0733 11.2806 16.0733 11.5504C16.0733 11.8202 16.1805 12.0789 16.3712 12.2697C16.562 12.4605 16.8208 12.5676 17.0906 12.5676H28.9217C29.1913 12.5674 29.4498 12.4601 29.6404 12.2693C29.8309 12.0786 29.938 11.82 29.938 11.5504ZM29.9888 21.0468C29.9888 20.777 29.8817 20.5182 29.6909 20.3275C29.5001 20.1367 29.2414 20.0295 28.9715 20.0295H25.0122C24.7424 20.0295 24.4837 20.1367 24.2929 20.3275C24.1021 20.5182 23.9949 20.777 23.9949 21.0468C23.9949 21.3166 24.1021 21.5754 24.2929 21.7661C24.4837 21.9569 24.7424 22.0641 25.0122 22.0641H28.9736C29.243 22.0635 29.5013 21.9561 29.6916 21.7654C29.8819 21.5747 29.9888 21.3162 29.9888 21.0468ZM22.0163 21.0468C22.0163 20.777 21.9091 20.5182 21.7184 20.3275C21.5276 20.1367 21.2688 20.0295 20.999 20.0295H17.0906C16.8208 20.0295 16.562 20.1367 16.3712 20.3275C16.1805 20.5182 16.0733 20.777 16.0733 21.0468C16.0733 21.3166 16.1805 21.5754 16.3712 21.7661C16.562 21.9569 16.8208 22.0641 17.0906 22.0641H21.0011C21.2705 22.0635 21.5287 21.9561 21.7191 21.7654C21.9094 21.5747 22.0163 21.3162 22.0163 21.0468ZM22.0163 25.1088C22.0163 24.839 21.9091 24.5803 21.7184 24.3895C21.5276 24.1987 21.2688 24.0916 20.999 24.0916H17.0906C16.8208 24.0916 16.562 24.1987 16.3712 24.3895C16.1805 24.5803 16.0733 24.839 16.0733 25.1088C16.0733 25.3787 16.1805 25.6374 16.3712 25.8282C16.562 26.019 16.8208 26.1261 17.0906 26.1261H21.0011C21.2703 26.1256 21.5284 26.0183 21.7187 25.8278C21.909 25.6373 22.016 25.3791 22.0163 25.1099V25.1088ZM27.9064 25.1088C27.9064 24.839 27.7993 24.5803 27.6085 24.3895C27.4177 24.1987 27.159 24.0916 26.8891 24.0916H25.0122C24.7424 24.0916 24.4837 24.1987 24.2929 24.3895C24.1021 24.5803 23.9949 24.839 23.9949 25.1088C23.9949 25.3787 24.1021 25.6374 24.2929 25.8282C24.4837 26.019 24.7424 26.1261 25.0122 26.1261H26.8912C27.1605 26.1256 27.4185 26.0183 27.6088 25.8278C27.7992 25.6373 27.9062 25.3791 27.9064 25.1099V25.1088ZM28.9726 17.999H21.6094C21.3396 17.999 21.0808 17.8918 20.8901 17.701C20.6993 17.5102 20.5921 17.2515 20.5921 16.9817C20.5921 16.7119 20.6993 16.4531 20.8901 16.2624C21.0808 16.0716 21.3396 15.9644 21.6094 15.9644H28.9726C29.2425 15.9644 29.5014 16.0716 29.6923 16.2625C29.8831 16.4534 29.9904 16.7123 29.9904 16.9822C29.9904 17.2521 29.8831 17.511 29.6923 17.7019C29.5014 17.8928 29.2425 18 28.9726 18V17.999ZM16.0743 16.88C16.0737 17.1312 16.1476 17.3769 16.2868 17.5861C16.4259 17.7953 16.624 17.9585 16.8559 18.0551C17.0878 18.1516 17.3432 18.1772 17.5897 18.1286C17.8362 18.0799 18.0627 17.9593 18.2405 17.7818C18.4184 17.6044 18.5396 17.3782 18.5888 17.1318C18.6381 16.8855 18.6131 16.63 18.5171 16.3979C18.4211 16.1657 18.2584 15.9672 18.0495 15.8276C17.8407 15.688 17.5951 15.6134 17.3439 15.6134C17.0072 15.6134 16.6842 15.7472 16.4461 15.9853C16.2081 16.2234 16.0743 16.5463 16.0743 16.883V16.88Z" fill="url(#paint0_linear_3_749)"/>
</g>
<defs>
<filter id="filter0_d_3_749" x="0" y="0" width="42" height="42" filterUnits="userSpaceOnUse" color-interpolation-filters="sRGB">
<feFlood flood-opacity="0" result="BackgroundImageFix"/>
<feColorMatrix in="SourceAlpha" type="matrix" values="0 0 0 0 0 0 0 0 0 0 0 0 0 0 0 0 0 0 127 0" result="hardAlpha"/>
<feOffset dy="3"/>
<feGaussianBlur stdDeviation="4"/>
<feComposite in2="hardAlpha" operator="out"/>
<feColorMatrix type="matrix" values="0 0 0 0 0 0 0 0 0 0 0 0 0 0 0 0 0 0 0.25 0"/>
<feBlend mode="normal" in2="BackgroundImageFix" result="effect1_dropShadow_3_749"/>
<feBlend mode="normal" in="SourceGraphic" in2="effect1_dropShadow_3_749" result="shape"/>
</filter>
<linearGradient id="paint0_linear_3_749" x1="16.3157" y1="8.25" x2="24.4175" y2="32.4798" gradientUnits="userSpaceOnUse">
<stop stop-color="#00BCC8"/>
<stop offset="1" stop-color="#2787BD"/>
</linearGradient>
</defs>
</svg>
