<svg width="17" height="20" viewBox="0 0 17 20" fill="none" xmlns="http://www.w3.org/2000/svg">
<path d="M17 16.1383C17 16.0913 17 16.0443 17 15.9972C16.9927 15.6139 16.887 15.239 16.6933 14.9093C16.4996 14.5797 16.2245 14.3067 15.895 14.117C15.7537 14.0402 15.6376 13.9236 15.5607 13.7811C15.4839 13.6387 15.4497 13.4765 15.4624 13.3147V8.63846C15.4722 7.13857 15.0068 5.67475 14.1346 4.46179C13.2623 3.24882 12.0291 2.35033 10.6153 1.89784C10.1889 1.75996 9.74271 1.67852 9.27906 1.56989V0.838753C9.27906 0.819951 9.27906 0.801171 9.27906 0.783414C9.27901 0.584524 9.20448 0.393021 9.07032 0.247622C8.93617 0.102223 8.75243 0.013753 8.55628 0H8.44372C8.24757 0.013753 8.06383 0.102223 7.92968 0.247622C7.79552 0.393021 7.72099 0.584524 7.72094 0.783414C7.72094 0.802216 7.72094 0.820995 7.72094 0.838753V1.56989C7.25729 1.67434 6.81113 1.75996 6.38466 1.89784C4.97095 2.35033 3.73766 3.24882 2.86541 4.46179C1.99317 5.67475 1.52784 7.13857 1.53758 8.63846V13.3086C1.54947 13.4703 1.515 13.632 1.43825 13.7743C1.3615 13.9166 1.24566 14.0335 1.10485 14.1109C0.775321 14.3005 0.500268 14.5733 0.306558 14.903C0.112849 15.2326 0.00719588 15.6075 0 15.9909C0 16.0379 0 16.0849 0 16.1319C0 16.1403 0 16.1475 0 16.1548C0.0113263 16.7347 0.2355 17.2896 0.628873 17.7115C1.02225 18.1333 1.55672 18.392 2.12826 18.4373H2.1778H2.1933H2.27902H2.35226H7.72194C7.72194 18.6462 7.7333 18.8384 7.72194 19.0253C7.68651 19.2367 7.73035 19.4538 7.84497 19.6341C7.95959 19.8143 8.13669 19.9449 8.34149 20H8.65133C8.85612 19.9449 9.0331 19.8143 9.14772 19.6341C9.26234 19.4538 9.3063 19.2367 9.27087 19.0253C9.26054 18.8384 9.27087 18.6503 9.27087 18.4373H14.6404H14.7138H14.7995H14.815H14.8646C15.4361 18.392 15.9706 18.1333 16.3639 17.7115C16.7573 17.2896 16.9815 16.7347 16.9928 16.1548L17 16.1383Z" fill="url(#paint0_linear_3_781)"/>
<defs>
<linearGradient id="paint0_linear_3_781" x1="5.43716" y1="2.5" x2="12.4965" y2="20.4452" gradientUnits="userSpaceOnUse">
<stop stop-color="#00BCC8"/>
<stop offset="1" stop-color="#2787BD"/>
</linearGradient>
</defs>
</svg>
