<svg width="42" height="40" viewBox="0 0 42 40" fill="none" xmlns="http://www.w3.org/2000/svg">
<g filter="url(#filter0_d_3_811)">
<path d="M27.9056 30.9969H14.0934C12.4778 30.9942 10.9292 30.3511 9.78696 29.2085C8.64475 28.0659 8.00215 26.5171 8 24.9015V16.3566C8.00293 15.4197 8.22057 14.496 8.63622 13.6564C9.05187 12.8169 9.65445 12.0837 10.3977 11.5134L17.3048 6.24606C18.3673 5.43771 19.6655 5 21.0005 5C22.3355 5 23.6337 5.43771 24.6962 6.24606L26.8904 7.91843V6.62245C26.8904 6.35265 26.9976 6.09391 27.1884 5.90314C27.3791 5.71237 27.6379 5.60519 27.9077 5.60519C28.1775 5.60519 28.4362 5.71237 28.627 5.90314C28.8177 6.09391 28.9249 6.35265 28.9249 6.62245V9.96921C28.9238 10.1576 28.8704 10.342 28.7706 10.5018C28.6708 10.6616 28.5286 10.7906 28.3599 10.8743C28.1911 10.9581 28.0024 10.9933 27.8148 10.9761C27.6272 10.9589 27.448 10.89 27.2973 10.7769L23.4623 7.86146C22.7539 7.32256 21.8885 7.03075 20.9985 7.03075C20.1085 7.03075 19.243 7.32256 18.5347 7.86146L11.6296 13.1288C11.1348 13.5092 10.7338 13.998 10.4573 14.5575C10.1808 15.117 10.0362 15.7324 10.0345 16.3566V24.9015C10.0345 25.9789 10.4618 27.0123 11.2227 27.7751C11.9836 28.5379 13.0159 28.9678 14.0934 28.9705H27.9056C28.9837 28.9689 30.0171 28.5395 30.7789 27.7766C31.5407 27.0136 31.9685 25.9796 31.9685 24.9015V16.3566C31.9704 15.7314 31.8288 15.1142 31.5548 14.5524C31.2807 13.9905 30.8815 13.499 30.3877 13.1156C30.2734 13.0378 30.1762 12.9376 30.1019 12.821C30.0276 12.7045 29.9779 12.574 29.9558 12.4375C29.9336 12.3011 29.9395 12.1616 29.973 12.0275C30.0066 11.8934 30.0672 11.7675 30.151 11.6576C30.2348 11.5477 30.3401 11.456 30.4606 11.3882C30.581 11.3203 30.714 11.2777 30.8514 11.263C30.9889 11.2483 31.1279 11.2617 31.26 11.3025C31.392 11.3433 31.5144 11.4105 31.6196 11.5002C32.3613 12.0738 32.9616 12.8098 33.3742 13.6517C33.7869 14.4936 34.001 15.4189 34 16.3566V24.9015C33.9978 26.5172 33.3551 28.0662 32.2127 29.2088C31.0703 30.3514 29.5214 30.9944 27.9056 30.9969ZM18.969 16.7278C18.718 16.7278 18.4725 16.8023 18.2637 16.9418C18.055 17.0813 17.8922 17.2796 17.7962 17.5116C17.7001 17.7435 17.6749 17.9988 17.7239 18.2451C17.7729 18.4913 17.8938 18.7175 18.0714 18.8951C18.2489 19.0726 18.4751 19.1935 18.7214 19.2425C18.9676 19.2915 19.2229 19.2664 19.4549 19.1703C19.6869 19.0742 19.8851 18.9115 20.0246 18.7027C20.1641 18.4939 20.2386 18.2485 20.2386 17.9974C20.2386 17.6607 20.1048 17.3378 19.8667 17.0997C19.6287 16.8616 19.3058 16.7278 18.969 16.7278ZM24.3015 17.9974C24.3015 18.3346 24.1675 18.658 23.9291 18.8965C23.6906 19.135 23.3672 19.2689 23.0299 19.2689C22.6927 19.2689 22.3693 19.135 22.1308 18.8965C21.8923 18.658 21.7584 18.3346 21.7584 17.9974C21.7584 17.6603 21.8923 17.337 22.1306 17.0986C22.369 16.8602 22.6923 16.7263 23.0294 16.7263C23.3665 16.7263 23.6898 16.8602 23.9282 17.0986C24.1666 17.337 24.3005 17.6603 24.3005 17.9974H24.3015ZM20.2386 22.0603C20.2386 22.3975 20.1046 22.721 19.8661 22.9594C19.6277 23.1979 19.3043 23.3319 18.967 23.3319C18.6298 23.3319 18.3063 23.1979 18.0679 22.9594C17.8294 22.721 17.6954 22.3975 17.6954 22.0603C17.6954 21.8933 17.7282 21.7279 17.792 21.5736C17.8559 21.4193 17.9495 21.2791 18.0675 21.161C18.3059 20.9225 18.6293 20.7884 18.9665 20.7882C19.3037 20.7881 19.6272 20.9219 19.8658 21.1603C19.9839 21.2783 20.0776 21.4185 20.1416 21.5727C20.2056 21.727 20.2385 21.8923 20.2386 22.0593V22.0603ZM24.3015 22.0603C24.3015 22.3975 24.1675 22.721 23.9291 22.9594C23.6906 23.1979 23.3672 23.3319 23.0299 23.3319C22.6927 23.3319 22.3693 23.1979 22.1308 22.9594C21.8923 22.721 21.7584 22.3975 21.7584 22.0603C21.7582 21.7232 21.892 21.3998 22.1303 21.1614C22.3686 20.9229 22.6918 20.7889 23.0289 20.7887C23.366 20.7886 23.6894 20.9224 23.9278 21.1607C24.1663 21.3989 24.3003 21.7222 24.3005 22.0593L24.3015 22.0603Z" fill="url(#paint0_linear_3_811)"/>
</g>
<defs>
<filter id="filter0_d_3_811" x="0" y="0" width="42" height="41.9969" filterUnits="userSpaceOnUse" color-interpolation-filters="sRGB">
<feFlood flood-opacity="0" result="BackgroundImageFix"/>
<feColorMatrix in="SourceAlpha" type="matrix" values="0 0 0 0 0 0 0 0 0 0 0 0 0 0 0 0 0 0 127 0" result="hardAlpha"/>
<feOffset dy="3"/>
<feGaussianBlur stdDeviation="4"/>
<feComposite in2="hardAlpha" operator="out"/>
<feColorMatrix type="matrix" values="0 0 0 0 0 0 0 0 0 0 0 0 0 0 0 0 0 0 0.25 0"/>
<feBlend mode="normal" in2="BackgroundImageFix" result="effect1_dropShadow_3_811"/>
<feBlend mode="normal" in="SourceGraphic" in2="effect1_dropShadow_3_811" result="shape"/>
</filter>
<linearGradient id="paint0_linear_3_811" x1="16.3157" y1="8.24961" x2="24.4158" y2="32.4771" gradientUnits="userSpaceOnUse">
<stop stop-color="#00BCC8"/>
<stop offset="1" stop-color="#2787BD"/>
</linearGradient>
</defs>
</svg>
