<svg width="21" height="19" viewBox="0 0 21 19" fill="none" xmlns="http://www.w3.org/2000/svg">
<path d="M7.55729 17.244C7.55729 16.9109 7.68962 16.5914 7.92517 16.3559C8.16071 16.1203 8.48018 15.988 8.81329 15.988C9.30572 15.9881 9.79655 15.932 10.2763 15.821C10.3323 15.808 10.3873 15.794 10.4433 15.78C11.6661 15.4604 12.7694 14.7915 13.6182 13.8551C14.4671 12.9186 15.0248 11.7552 15.2233 10.507C15.2333 10.443 15.2423 10.378 15.2503 10.314C15.2503 10.291 15.2553 10.267 15.2583 10.245C15.2653 10.184 15.2723 10.123 15.2773 10.062C15.2773 10.046 15.2773 10.03 15.2773 10.014C15.2823 9.947 15.2863 9.881 15.2903 9.814H13.5173C13.4009 9.82773 13.283 9.80658 13.1786 9.75324C13.0742 9.69989 12.988 9.61675 12.9309 9.51436C12.8738 9.41196 12.8484 9.29492 12.8579 9.17807C12.8674 9.06122 12.9114 8.94982 12.9843 8.858L15.9663 4.072C16.0196 3.96806 16.1006 3.88085 16.2002 3.81995C16.2999 3.75905 16.4145 3.72683 16.5313 3.72683C16.6481 3.72683 16.7627 3.75905 16.8623 3.81995C16.962 3.88085 17.043 3.96806 17.0963 4.072L20.0793 8.858C20.1517 8.94995 20.1952 9.06126 20.2045 9.17792C20.2137 9.29457 20.1883 9.41136 20.1313 9.51357C20.0743 9.61578 19.9883 9.69885 19.8843 9.75231C19.7802 9.80577 19.6626 9.82723 19.5463 9.814H17.8083C17.8083 9.849 17.8083 9.884 17.8083 9.919C17.8083 9.954 17.8083 9.974 17.8083 10.001C17.8083 10.047 17.8033 10.092 17.8003 10.137L17.7953 10.211C17.7903 10.279 17.7833 10.347 17.7773 10.411V10.435L17.7553 10.623C17.7553 10.639 17.7553 10.655 17.7493 10.671L17.7253 10.845L17.7203 10.881L17.7093 10.948C17.7098 10.9557 17.7098 10.9633 17.7093 10.971C17.5078 12.1766 17.0632 13.3285 16.4025 14.3569C15.7419 15.3853 14.879 16.2685 13.8663 16.953C13.8443 16.968 13.8243 16.985 13.8023 17C12.8856 17.6096 11.8641 18.0446 10.7893 18.283L10.7393 18.293C10.1122 18.4274 9.4726 18.4944 8.83129 18.493C8.66543 18.4954 8.50074 18.4649 8.34673 18.4033C8.19272 18.3416 8.05244 18.2501 7.93399 18.134C7.81554 18.0179 7.72127 17.8794 7.65661 17.7267C7.59196 17.5739 7.5582 17.4099 7.55729 17.244V17.244ZM3.70829 16.913C2.80391 16.2894 2.02135 15.5055 1.39929 14.6C1.21033 14.3256 1.13809 13.9874 1.19848 13.6598C1.25886 13.3322 1.44693 13.042 1.72129 12.853C1.99566 12.664 2.33386 12.5918 2.66148 12.6522C2.98911 12.7126 3.27933 12.9006 3.46829 13.175C3.91751 13.8293 4.48325 14.3954 5.13729 14.845C5.27308 14.9387 5.38908 15.0582 5.47868 15.1968C5.56827 15.3353 5.6297 15.4901 5.65946 15.6524C5.68922 15.8146 5.68673 15.9812 5.65213 16.1425C5.61753 16.3038 5.55149 16.4567 5.45779 16.5925C5.36409 16.7283 5.24457 16.8443 5.10604 16.9339C4.96751 17.0235 4.81269 17.0849 4.65042 17.1147C4.48815 17.1444 4.32161 17.1419 4.1603 17.1073C3.99899 17.0727 3.84608 17.0067 3.71029 16.913H3.70829ZM0.982293 9.033C0.821276 8.99705 0.66892 8.92972 0.533928 8.83488C0.398936 8.74003 0.283953 8.61952 0.195547 8.48022C0.107141 8.34092 0.0470437 8.18558 0.0186889 8.02305C-0.00966584 7.86052 -0.00572279 7.694 0.0302928 7.533C0.269284 6.45837 0.704942 5.4372 1.31529 4.521C1.50076 4.24577 1.78762 4.05513 2.11321 3.99074C2.43879 3.92635 2.77662 3.99344 3.0529 4.17735C3.32917 4.36127 3.52141 4.64706 3.58763 4.97228C3.65385 5.29749 3.58866 5.6357 3.40629 5.913C2.9672 6.57224 2.65361 7.30689 2.48129 8.08C2.44581 8.2413 2.3788 8.394 2.2841 8.52931C2.18939 8.66462 2.06888 8.77987 1.92947 8.86843C1.79007 8.957 1.63454 9.01713 1.47181 9.04538C1.30909 9.07362 1.14239 9.06941 0.981293 9.033H0.982293ZM6.32329 2.058C6.29674 1.89514 6.30256 1.72865 6.34042 1.56804C6.37828 1.40744 6.44745 1.25587 6.54395 1.12203C6.64046 0.988184 6.76241 0.874684 6.90283 0.788025C7.04325 0.701366 7.19939 0.643249 7.36229 0.617C7.84238 0.539163 8.32794 0.500037 8.81429 0.5C9.1474 0.5 9.46687 0.632328 9.70242 0.867874C9.93796 1.10342 10.0703 1.42289 10.0703 1.756C10.0703 2.08911 9.93796 2.40858 9.70242 2.64413C9.46687 2.87967 9.1474 3.012 8.81429 3.012C8.4625 3.0132 8.11138 3.04263 7.76429 3.1C7.69814 3.11048 7.63127 3.11583 7.56429 3.116C7.26538 3.11617 6.9762 3.00972 6.74873 2.8158C6.52126 2.62187 6.37041 2.35318 6.32329 2.058V2.058Z" fill="url(#paint0_linear_3_817)"/>
<defs>
<linearGradient id="paint0_linear_3_817" x1="6.46266" y1="2.74914" x2="11.5616" y2="19.8738" gradientUnits="userSpaceOnUse">
<stop stop-color="#00BCC8"/>
<stop offset="1" stop-color="#2787BD"/>
</linearGradient>
</defs>
</svg>
