<svg width="20" height="18" viewBox="0 0 20 18" fill="none" xmlns="http://www.w3.org/2000/svg">
<path fill-rule="evenodd" clip-rule="evenodd" d="M11.771 11.4312C12.7843 11.4184 13.7526 11.0108 14.47 10.295C15.1873 9.57925 15.5971 8.61189 15.6122 7.59863C15.6237 6.5165 15.6237 5.43689 15.6122 4.35985C15.6017 3.33991 15.1913 2.36483 14.4691 1.64447C13.747 0.924114 12.7709 0.51607 11.751 0.508116C9.1233 0.497295 6.49595 0.497295 3.86893 0.508116C2.99664 0.513889 2.15159 0.812762 1.46964 1.3567C0.787691 1.90063 0.308448 2.65803 0.108862 3.50719C0.0812975 3.6213 0.0580305 3.73584 0.0347351 3.85052C0.0233327 3.90666 0.0119234 3.96282 0 4.01899V7.9223C0.0151417 7.96435 0.0272323 8.00744 0.0362486 8.05121C0.159169 8.97554 0.609868 9.825 1.30623 10.4451C2.0026 11.0653 2.89836 11.4149 3.8307 11.4303C6.47682 11.4443 9.12362 11.4446 11.771 11.4312ZM3.98828 9.87396C3.66703 9.88538 3.34688 9.83062 3.04768 9.71311C2.74848 9.5956 2.47666 9.41787 2.24905 9.19088C2.02143 8.9639 1.84288 8.69253 1.72455 8.39365C1.60622 8.09477 1.5506 7.77473 1.56114 7.45346V4.46872C1.55311 4.15069 1.60996 3.83437 1.72816 3.53901C1.84636 3.24366 2.02348 2.97544 2.2487 2.75075C2.47392 2.52607 2.74249 2.34958 3.03812 2.23208C3.33376 2.11459 3.65022 2.05854 3.96823 2.06733H11.6555C11.9715 2.0598 12.2857 2.11632 12.5793 2.23348C12.8729 2.35064 13.1398 2.52603 13.3639 2.74906C13.5879 2.97209 13.7644 3.23812 13.8829 3.5312C14.0013 3.82428 14.0592 4.13833 14.053 4.45438V7.47828C14.059 7.79422 14.0011 8.1081 13.8826 8.40105C13.7642 8.694 13.5877 8.95997 13.3639 9.18296C13.14 9.40595 12.8733 9.58139 12.5799 9.69866C12.2865 9.81592 11.9723 9.8726 11.6564 9.86533H7.79322L3.98828 9.87396ZM19.9797 10.6072C19.9816 9.87631 19.7733 9.16023 19.3797 8.54436C18.9861 7.92849 18.4238 7.43879 17.7596 7.13358C17.6681 7.08008 17.5666 7.04587 17.4614 7.03305C17.3561 7.02023 17.2494 7.02908 17.1477 7.05904C17.046 7.089 16.9515 7.13941 16.8701 7.20724C16.7886 7.27507 16.7219 7.35889 16.674 7.45346C16.6255 7.54955 16.5973 7.65459 16.5912 7.76204C16.585 7.8695 16.601 7.97707 16.6381 8.07808C16.6753 8.17909 16.7328 8.27136 16.8071 8.34919C16.8815 8.42702 16.9711 8.48874 17.0703 8.53049C17.4904 8.72314 17.8436 9.03652 18.0849 9.4307C18.3262 9.82488 18.4447 10.282 18.4252 10.7438V13.6903C18.437 14.0117 18.3825 14.332 18.2652 14.6314C18.148 14.9309 17.9704 15.203 17.7434 15.4308C17.5165 15.6587 17.2452 15.8373 16.9462 15.9558C16.6472 16.0743 16.327 16.13 16.0056 16.1194H8.35655C8.23308 16.1223 8.10959 16.1159 7.98707 16.1003C7.41949 16.0305 6.89713 15.7552 6.51871 15.3265C6.14029 14.8977 5.93201 14.3452 5.93325 13.7734C5.93263 13.6706 5.91173 13.569 5.87171 13.4743C5.83169 13.3797 5.77331 13.2939 5.70003 13.2218C5.62674 13.1498 5.53998 13.0929 5.44466 13.0545C5.34933 13.0161 5.24729 12.997 5.14453 12.9981C5.04175 12.9983 4.94009 13.019 4.84545 13.0591C4.7508 13.0992 4.66515 13.1578 4.59345 13.2314C4.52176 13.3051 4.46546 13.3923 4.42795 13.488C4.39044 13.5837 4.37249 13.6859 4.37503 13.7886C4.3748 14.0095 4.39421 14.23 4.43319 14.4475C4.59123 15.3668 5.07397 16.1989 5.79362 16.7924C6.51327 17.3859 7.42209 17.7013 8.35469 17.6815H12.1797C12.6256 17.6815 13.0709 17.6828 13.5157 17.6842C14.4042 17.687 15.2911 17.6897 16.1794 17.6815C17.1787 17.6576 18.1307 17.2507 18.8385 16.5448C19.5463 15.839 19.9558 14.8882 19.9825 13.8889L19.9834 13.8221C19.9984 12.7483 20.0133 11.6764 19.9797 10.6072ZM15.5338 14.3349C15.386 14.1902 15.3016 13.9927 15.2991 13.7858C15.2973 13.5791 15.3776 13.3802 15.5222 13.2326C15.6668 13.0849 15.8639 13.0006 16.0706 12.9981C16.2774 12.996 16.4766 13.0761 16.6244 13.2207C16.7723 13.3654 16.8568 13.5627 16.8593 13.7695C16.8611 13.9763 16.7809 14.1754 16.6363 14.3232C16.4917 14.471 16.2945 14.5555 16.0878 14.5583C15.8809 14.56 15.6816 14.4797 15.5338 14.3349ZM12.0861 5.08647C12.2376 5.00765 12.358 4.87969 12.4273 4.72358C12.4967 4.56747 12.5111 4.39243 12.468 4.22711C12.4298 4.05427 12.3327 3.9001 12.1934 3.79091C12.0541 3.68171 11.8811 3.62425 11.7041 3.62843H7.80279H3.92139C3.81701 3.62584 3.71318 3.64439 3.61613 3.68292C3.51909 3.72144 3.43087 3.77915 3.35668 3.85262C3.28249 3.9261 3.22388 4.01383 3.18441 4.1105C3.14495 4.20717 3.12538 4.31083 3.12695 4.41523C3.12731 4.51798 3.14822 4.61963 3.18826 4.71426C3.2283 4.80888 3.28669 4.89456 3.36018 4.96636C3.43367 5.03817 3.52072 5.09463 3.61625 5.13245C3.71178 5.17028 3.81389 5.18874 3.91661 5.18671H11.6993C11.8341 5.18254 11.9663 5.14831 12.0861 5.08647ZM11.1575 6.98244C11.3032 6.83567 11.5012 6.75268 11.708 6.75167C11.9148 6.75116 12.1133 6.83272 12.2601 6.97842C12.4069 7.12413 12.4899 7.3221 12.4909 7.52891C12.4912 7.73565 12.4096 7.93408 12.264 8.0808C12.1183 8.22752 11.9204 8.31055 11.7137 8.31181C11.507 8.31207 11.3085 8.23047 11.1618 8.08482C11.0151 7.93917 10.9321 7.74136 10.9308 7.53462C10.9303 7.32781 11.0118 7.12922 11.1575 6.98244Z" fill="url(#paint0_linear_3_966)"/>
<defs>
<linearGradient id="paint0_linear_3_966" x1="6.39666" y1="2.64837" x2="11.1233" y2="19.0978" gradientUnits="userSpaceOnUse">
<stop stop-color="#00BCC8"/>
<stop offset="1" stop-color="#2787BD"/>
</linearGradient>
</defs>
</svg>
