<svg width="18" height="18" viewBox="0 0 18 18" fill="none" xmlns="http://www.w3.org/2000/svg">
<path fill-rule="evenodd" clip-rule="evenodd" d="M17.4865 8.23021V9.1426C17.4865 9.4631 17.4898 9.78425 17.4932 10.1061L17.4932 10.1065V10.1066V10.1067C17.4993 10.6906 17.5055 11.2768 17.4916 11.8656C17.4887 12.6811 17.2657 13.4805 16.8461 14.1797C16.4265 14.8789 15.8258 15.4519 15.1076 15.8381C14.6732 16.0824 14.1611 16.1494 13.6784 16.0251C13.1957 15.9008 12.7797 15.5949 12.5172 15.1712C12.2427 14.7573 12.1327 14.2558 12.2087 13.7651C12.2848 13.2743 12.5414 12.8296 12.9282 12.5181C12.9891 12.473 13.0549 12.4328 13.1204 12.3928C13.14 12.3808 13.1596 12.3689 13.179 12.3568C13.2811 12.3 13.3659 12.2164 13.4242 12.115C13.4825 12.0136 13.5121 11.8982 13.5099 11.7813V6.47402C13.5107 6.38654 13.4939 6.29982 13.4607 6.21889C13.4275 6.13796 13.3784 6.06444 13.3163 6.00277C13.2543 5.9411 13.1806 5.89249 13.0994 5.85978C13.0183 5.82706 12.9314 5.81099 12.8439 5.81236C12.772 5.81236 12.7001 5.81305 12.6281 5.81373C12.4843 5.8151 12.3404 5.81647 12.1966 5.81236C12.1595 5.80679 12.1218 5.81469 12.0901 5.83469C12.0584 5.85468 12.0349 5.88539 12.024 5.92124C11.9003 6.22026 11.7052 6.48436 11.4558 6.69052C11.2063 6.89668 10.9101 7.03862 10.5932 7.10382C10.2762 7.16902 9.94816 7.15553 9.63762 7.06456C9.32708 6.97358 9.04357 6.80794 8.81189 6.58202C8.31867 6.11757 7.84288 5.63802 7.38459 5.14343C7.05119 4.78129 6.86618 4.30696 6.86618 3.81472C6.86618 3.32248 7.05119 2.84827 7.38459 2.48613C7.85521 1.98058 8.34432 1.48939 8.8509 1.02083C9.08298 0.808132 9.36237 0.653771 9.66597 0.570523C9.96956 0.487276 10.2886 0.477602 10.5967 0.542176C10.9048 0.606749 11.1931 0.743787 11.4377 0.94193C11.6823 1.14007 11.8763 1.39363 12.0034 1.68161C12.0167 1.73042 12.0476 1.77265 12.0901 1.80014C12.1326 1.82763 12.1836 1.83847 12.2336 1.83062C12.8905 1.79096 13.5495 1.85616 14.1859 2.02379C15.0619 2.2881 15.8397 2.80633 16.421 3.51293C17.0023 4.21952 17.3609 5.08275 17.4515 5.99324C17.4921 6.50743 17.4892 7.02507 17.4864 7.54276C17.4852 7.772 17.4839 8.00125 17.4865 8.23021ZM15.7206 13.4431C16.0096 12.942 16.1598 12.3731 16.1557 11.7948V11.7906C16.1696 11.1601 16.1658 10.5291 16.1621 9.90159V9.90156V9.90154L16.1621 9.90112C16.1606 9.64317 16.159 9.38581 16.1587 9.12931V6.59218C16.1581 6.40989 16.1479 6.22787 16.128 6.04667C16.0363 5.32263 15.7064 4.64957 15.1902 4.13369C14.6739 3.61782 14.0007 3.28836 13.2766 3.19721C12.8775 3.1591 12.4751 3.16011 12.0726 3.16113H12.0726C11.9217 3.16151 11.7708 3.16189 11.6201 3.16021C11.5207 3.17403 11.4196 3.1657 11.3238 3.13575C11.2281 3.1058 11.1401 3.05498 11.0663 2.98699C10.9925 2.919 10.9348 2.83551 10.8971 2.74252C10.8594 2.64953 10.8428 2.5493 10.8484 2.44913C10.8427 2.32642 10.8016 2.20809 10.7299 2.10833C10.6582 2.00857 10.5591 1.93166 10.4447 1.88707C10.3316 1.83113 10.2039 1.81168 10.0793 1.83137C9.95466 1.85107 9.83931 1.90899 9.749 1.99707C9.27907 2.44988 8.81766 2.91085 8.36485 3.38009C8.25175 3.50442 8.1904 3.66724 8.19326 3.83529C8.19612 4.00334 8.263 4.16394 8.38028 4.28434C8.81802 4.72276 9.2557 5.16089 9.69344 5.59862C9.78242 5.69909 9.90059 5.76924 10.0314 5.79944C10.1621 5.82965 10.299 5.81834 10.4231 5.76708C10.5503 5.7223 10.6601 5.63876 10.7372 5.52813C10.8142 5.4175 10.8546 5.28539 10.8526 5.15058C10.8515 5.06028 10.8689 4.97072 10.9037 4.88742C10.9386 4.80412 10.9902 4.72887 11.0553 4.66628C11.1204 4.60369 11.1976 4.55511 11.2822 4.52354C11.3668 4.49197 11.457 4.47801 11.5472 4.48265H12.8409C13.1029 4.48224 13.3623 4.53356 13.6043 4.63367C13.8464 4.73378 14.0662 4.88073 14.2513 5.06604C14.4364 5.25135 14.5832 5.47137 14.683 5.71352C14.7829 5.95567 14.834 6.21522 14.8333 6.47716C14.8384 8.24043 14.8415 10.0037 14.8333 11.768C14.8409 12.1215 14.7516 12.4703 14.5752 12.7768C14.3988 13.0832 14.142 13.3355 13.8325 13.5065C13.7574 13.5502 13.6917 13.6085 13.6393 13.6778C13.5869 13.747 13.5488 13.826 13.5272 13.9102C13.5056 13.9943 13.501 14.0819 13.5135 14.1678C13.526 14.2538 13.5554 14.3363 13.6002 14.4108C13.6411 14.4896 13.6982 14.5589 13.7677 14.6141C13.8373 14.6694 13.9177 14.7094 14.0037 14.7315C14.0897 14.7536 14.1793 14.7573 14.2668 14.7424C14.3544 14.7276 14.4378 14.6944 14.5117 14.6451C15.0144 14.359 15.4316 13.9441 15.7206 13.4431ZM8.33504 10.9235C8.64329 11.0097 8.92608 11.1694 9.15913 11.3888C9.65852 11.8461 10.1374 12.331 10.6039 12.8253C10.9409 13.1885 11.1283 13.6657 11.1283 14.1611C11.1283 14.6566 10.9409 15.1338 10.6039 15.497C10.1894 15.9437 9.75267 16.3697 9.31659 16.7951L9.31653 16.7951L9.16528 16.9427C8.87862 17.224 8.50822 17.4044 8.11001 17.4565C8.0835 17.4628 8.05773 17.4718 8.033 17.4832H7.56852C7.5544 17.4744 7.53926 17.4675 7.52336 17.4627C7.17654 17.4142 6.84847 17.2753 6.57233 17.0599C6.29619 16.8445 6.08169 16.5604 5.95018 16.2358C5.9346 16.2137 5.91414 16.1953 5.89048 16.1821C5.86681 16.169 5.8405 16.1612 5.81346 16.1597H5.10038C4.08979 16.1494 3.11014 15.8097 2.31012 15.1922C1.5101 14.5747 0.93331 13.713 0.667453 12.738C0.616288 12.5499 0.583285 12.3567 0.550263 12.1634C0.534209 12.0695 0.518151 11.9755 0.5 11.882V5.81133C0.525684 5.69817 0.547738 5.58474 0.569768 5.47142C0.608551 5.27193 0.647262 5.07282 0.705584 4.87623C0.872149 4.29821 1.1521 3.75922 1.5293 3.29063C1.9065 2.82204 2.37332 2.43325 2.90242 2.14706C3.33637 1.90953 3.84449 1.84631 4.32344 1.9702C4.80239 2.09409 5.21621 2.39582 5.48056 2.81399C5.75417 3.22514 5.86558 3.72313 5.79327 4.21168C5.72095 4.70023 5.47007 5.1446 5.08909 5.45886C5.02266 5.51044 4.95087 5.55431 4.87916 5.59813L4.87911 5.59816L4.87905 5.5982C4.85651 5.61197 4.83398 5.62574 4.81163 5.63974C4.71023 5.69811 4.62649 5.78271 4.56917 5.88471C4.51184 5.9867 4.48303 6.10227 4.48588 6.21924V11.508C4.48377 11.5968 4.49964 11.6851 4.53267 11.7676C4.56569 11.8501 4.61521 11.9251 4.67804 11.9879C4.74087 12.0507 4.81582 12.1001 4.8983 12.1331C4.98079 12.1662 5.06912 12.1822 5.15795 12.1801C5.22946 12.1801 5.30119 12.1793 5.373 12.1785H5.37303H5.37307C5.51687 12.1769 5.66096 12.1753 5.80418 12.1801C5.84146 12.1848 5.87924 12.1758 5.91042 12.1548C5.9416 12.1339 5.96411 12.1024 5.97376 12.066C6.09741 11.7708 6.29071 11.5099 6.53721 11.3057C6.78371 11.1015 7.07605 10.9599 7.38915 10.8934C7.70225 10.8268 8.02679 10.8372 8.33504 10.9235ZM8.2436 15.9892C8.70873 15.5398 9.16639 15.0825 9.61646 14.6173V14.6132C9.73161 14.4887 9.79449 14.3247 9.79219 14.1551C9.7899 13.9855 9.72252 13.8232 9.60404 13.7018C9.38993 13.4862 9.17508 13.2713 8.96022 13.0564L8.95982 13.056L8.95942 13.0556C8.74456 12.8407 8.52971 12.6259 8.3156 12.4102C8.22546 12.3035 8.10357 12.2281 7.96777 12.1952C7.83197 12.1623 7.68923 12.1736 7.56024 12.2273C7.4321 12.2751 7.3223 12.3619 7.24616 12.4755C7.17001 12.589 7.13139 12.7236 7.1359 12.8603C7.13239 13.034 7.06028 13.1993 6.93533 13.32C6.81038 13.4407 6.64282 13.507 6.4691 13.5045H5.75589H5.15895C4.89562 13.5059 4.63459 13.455 4.39105 13.3549C4.14752 13.2547 3.92634 13.1072 3.74018 12.921C3.55402 12.7347 3.40661 12.5133 3.30656 12.2697C3.20651 12.0262 3.1558 11.7652 3.15729 11.5018C3.15044 9.74405 3.15044 7.98599 3.15729 6.22752C3.14888 5.87117 3.2381 5.51933 3.41544 5.21013C3.59277 4.90093 3.85145 4.64614 4.16327 4.47346C4.25756 4.41774 4.33738 4.34067 4.39645 4.24844C4.46983 4.11711 4.49753 3.9651 4.47522 3.81632C4.4529 3.66754 4.38184 3.53037 4.27315 3.42635C4.17231 3.3176 4.03536 3.24938 3.88782 3.23444C3.74027 3.21949 3.59222 3.25887 3.47163 3.34519C2.96289 3.63347 2.54158 4.05392 2.25217 4.56202C1.96276 5.07011 1.81604 5.64691 1.82758 6.23153C1.81936 7.38097 1.8221 8.53088 1.82484 9.68093C1.82621 10.256 1.82758 10.8311 1.82758 11.4063C1.82784 11.5996 1.83924 11.7927 1.86157 11.9848C1.96269 12.6989 2.29507 13.3602 2.80784 13.8674C3.32061 14.3746 3.98544 14.6998 4.70062 14.7931C5.1094 14.8321 5.52202 14.8311 5.93407 14.8301H5.93412C6.08655 14.8298 6.2389 14.8294 6.39095 14.8311C6.48779 14.8204 6.58579 14.831 6.67819 14.8618C6.7706 14.8927 6.85518 14.9431 6.92618 15.0098C6.99718 15.0765 7.05293 15.1578 7.08949 15.2481C7.12605 15.3384 7.14263 15.4356 7.13803 15.5329C7.14231 15.6583 7.18355 15.7798 7.25669 15.8818C7.32983 15.9839 7.4315 16.0619 7.54895 16.1062C7.66284 16.16 7.79053 16.1776 7.91471 16.1567C8.0389 16.1357 8.15364 16.0773 8.2436 15.9892ZM6.33954 9.65214H7.00233H7.66512C7.75237 9.65255 7.83879 9.63573 7.9195 9.60259C8.00021 9.56946 8.07358 9.5207 8.13537 9.4591C8.19716 9.3975 8.24623 9.32434 8.27961 9.24373C8.313 9.16312 8.33005 9.07673 8.32991 8.98948C8.33032 8.90229 8.31348 8.81583 8.28024 8.73522C8.247 8.65462 8.19812 8.58141 8.13637 8.51986C8.07462 8.4583 8.00121 8.4096 7.9205 8.37661C7.83979 8.34362 7.75331 8.32701 7.66612 8.32769C7.22428 8.3229 6.78252 8.3229 6.34067 8.32769C6.25352 8.32715 6.16707 8.34383 6.08642 8.37686C6.00577 8.4099 5.93252 8.4587 5.8708 8.52023C5.80908 8.58176 5.76009 8.65481 5.72681 8.73535C5.69352 8.81589 5.67661 8.90233 5.67688 8.98948C5.67675 9.07655 5.6938 9.16276 5.72706 9.24323C5.76032 9.3237 5.80911 9.39677 5.87068 9.45835C5.93225 9.51992 6.00532 9.56871 6.08579 9.60197C6.16627 9.63523 6.25247 9.65227 6.33954 9.65214ZM10.3224 8.32769C10.7635 8.3229 11.205 8.3229 11.6468 8.32769C11.7342 8.32674 11.8209 8.34312 11.9018 8.37598C11.9828 8.40885 12.0563 8.45752 12.1183 8.5191C12.1803 8.58069 12.2294 8.65398 12.2628 8.73472C12.2962 8.81546 12.3131 8.90211 12.3127 8.98948C12.3129 9.07673 12.2957 9.16312 12.2623 9.24373C12.2289 9.32434 12.18 9.3975 12.1182 9.4591C12.0564 9.5207 11.983 9.56946 11.9023 9.60259C11.8216 9.63573 11.7351 9.65255 11.6478 9.65214H10.9687H10.3224C10.2352 9.65241 10.1488 9.63554 10.0682 9.60234C9.98765 9.56914 9.91442 9.52031 9.85274 9.45872C9.79106 9.39714 9.74219 9.32402 9.70887 9.24348C9.67555 9.16294 9.65844 9.07664 9.65857 8.98948C9.6583 8.90233 9.67521 8.81589 9.7085 8.73535C9.74178 8.65481 9.79077 8.58176 9.85249 8.52023C9.91421 8.4587 9.98746 8.4099 10.0681 8.37686C10.1488 8.34383 10.2352 8.32715 10.3224 8.32769Z" fill="url(#paint0_linear_3_943)"/>
<defs>
<linearGradient id="paint0_linear_3_943" x1="5.93717" y1="2.62291" x2="11.2252" y2="18.453" gradientUnits="userSpaceOnUse">
<stop stop-color="#00BCC8"/>
<stop offset="1" stop-color="#2787BD"/>
</linearGradient>
</defs>
</svg>
