<svg width="16" height="19" viewBox="0 0 16 19" fill="none" xmlns="http://www.w3.org/2000/svg">
<path fill-rule="evenodd" clip-rule="evenodd" d="M4.74431 0.791956C4.82737 0.937147 4.875 1.09989 4.88331 1.26696C4.89857 1.53405 4.89695 1.80172 4.89532 2.06954C4.89482 2.15267 4.89431 2.23581 4.89431 2.31896H4.87831C4.87831 2.44966 4.88031 2.58036 4.88231 2.71103C4.88631 2.97225 4.89031 3.23333 4.87831 3.49396C4.86764 3.64778 4.80469 3.79333 4.69993 3.90646C4.59516 4.0196 4.45486 4.09352 4.30231 4.11596C4.15073 4.14081 3.99518 4.11511 3.85965 4.04282C3.72411 3.97054 3.61612 3.85568 3.55231 3.71596C3.51834 3.648 3.4986 3.57381 3.49431 3.49796C3.49431 3.24881 3.49312 3.00006 3.49192 2.7513C3.48933 2.21229 3.48673 1.67323 3.49631 1.12996C3.50363 0.988278 3.55717 0.852901 3.64873 0.74454C3.74029 0.63618 3.86484 0.560807 4.00331 0.529956C4.13854 0.487589 4.28387 0.490224 4.41748 0.537465C4.55108 0.584705 4.66577 0.674003 4.74431 0.791956ZM12.3163 2.25394C13.3015 2.20717 14.2743 2.48853 15.0823 3.05395C15.3883 3.25519 15.6335 3.53622 15.7914 3.86668C15.9493 4.19713 16.014 4.56444 15.9783 4.92895C15.9194 5.42899 15.6732 5.88815 15.2893 6.21395C14.7103 6.72555 13.9866 7.04458 13.2183 7.12695C12.2172 7.3009 11.1867 7.13213 10.2933 6.64794C9.97335 6.46588 9.68552 6.23244 9.44133 5.95695C9.13503 5.61851 8.96457 5.17882 8.96272 4.72236C8.96088 4.2659 9.12777 3.82485 9.43132 3.48394C9.94863 2.89227 10.6558 2.49911 11.4313 2.37194C11.6831 2.31968 11.9408 2.29342 12.1351 2.27363C12.2047 2.26654 12.2662 2.26028 12.3163 2.25394ZM13.2313 5.69395C13.6625 5.62894 14.0638 5.43473 14.3823 5.13694H14.3813C14.4456 5.08875 14.4977 5.0263 14.5337 4.95449C14.5696 4.88268 14.5884 4.8035 14.5885 4.7232C14.5886 4.64289 14.57 4.56366 14.5342 4.49177C14.4984 4.41988 14.4465 4.3573 14.3823 4.30895C14.2408 4.16987 14.0768 4.05559 13.8973 3.97094C13.4667 3.76994 12.9982 3.66296 12.523 3.6571C12.0478 3.65123 11.5768 3.74663 11.1413 3.93694C10.9382 4.02553 10.7516 4.14794 10.5893 4.29894C10.5227 4.34639 10.4682 4.40897 10.4305 4.48154C10.3927 4.55412 10.3728 4.63461 10.3722 4.71641C10.3716 4.79821 10.3904 4.87899 10.4271 4.9521C10.4638 5.0252 10.5174 5.08855 10.5833 5.13694C10.6839 5.23458 10.7961 5.31955 10.9173 5.38995C11.4321 5.66442 12.0103 5.79826 12.5933 5.77795C12.6289 5.77357 12.6721 5.7692 12.721 5.76426L12.7212 5.76424L12.7213 5.76423L12.7213 5.76422C12.8623 5.74998 13.0495 5.73105 13.2313 5.69395ZM6.40371 3.67162C6.55565 3.64895 6.71081 3.67795 6.84431 3.75395C6.97722 3.82383 7.08307 3.93597 7.14518 4.07268C7.20729 4.20939 7.22211 4.36288 7.18731 4.50895C7.15135 4.6439 7.08266 4.7679 6.98731 4.86995C6.54031 5.34595 6.08331 5.80795 5.62531 6.26995C5.31353 6.59263 4.90407 6.80351 4.46031 6.86995C4.4324 6.87683 4.40526 6.88655 4.37931 6.89895H3.85231C3.46585 6.83091 3.1029 6.66613 2.79731 6.41995C2.6507 6.28753 2.51003 6.14872 2.3685 6.00906C2.30055 5.94201 2.23241 5.87477 2.16331 5.80795C1.86331 5.50662 1.56331 5.20362 1.26331 4.89895C1.19785 4.83375 1.14587 4.75629 1.11034 4.671C1.07481 4.58571 1.05643 4.49426 1.05624 4.40187C1.05606 4.30947 1.07407 4.21795 1.10926 4.13251C1.14444 4.04708 1.19611 3.96942 1.26131 3.90395C1.32652 3.83849 1.40397 3.78651 1.48926 3.75098C1.57455 3.71545 1.66601 3.69707 1.7584 3.69688C1.85079 3.6967 1.94232 3.71471 2.02775 3.7499C2.11318 3.78508 2.19085 3.83675 2.25631 3.90195C2.54972 4.19336 2.84179 4.48698 3.13371 4.78046C3.27957 4.92709 3.42539 5.07369 3.57131 5.21995C3.63739 5.30528 3.72212 5.37435 3.81901 5.42187C3.91591 5.46939 4.0224 5.49409 4.13031 5.49409C4.23823 5.49409 4.34472 5.46939 4.44162 5.42187C4.53851 5.37435 4.62324 5.30528 4.68931 5.21995L4.9524 4.95062L4.95249 4.95052C5.30236 4.59218 5.6521 4.23397 6.00631 3.87895C6.11183 3.76729 6.25177 3.69428 6.40371 3.67162ZM6.64433 8.74594C5.83561 8.18031 4.86209 7.89895 3.87632 7.94594C3.82625 7.9523 3.76475 7.95859 3.69503 7.96572L3.69502 7.96572C3.50153 7.9855 3.24473 8.01175 2.99332 8.06394C2.21748 8.19164 1.51033 8.58553 0.993324 9.17794C0.69694 9.52035 0.533791 9.95807 0.533791 10.4109C0.533791 10.8638 0.69694 11.3015 0.993324 11.6439C1.30259 12.0139 1.6968 12.3035 2.14231 12.4879C3.04212 12.8732 4.03772 12.9761 4.99729 12.7829C5.70181 12.6754 6.35895 12.3623 6.88633 11.8829C7.25141 11.5628 7.48623 11.1198 7.5463 10.6379C7.58455 10.2701 7.52057 9.89887 7.36143 9.56506C7.20228 9.23125 6.95417 8.94781 6.64433 8.74594ZM5.99632 10.7649C5.83141 10.9381 5.63531 11.0785 5.41831 11.1789C4.95615 11.3892 4.45183 11.4905 3.94431 11.4749C3.4368 11.4593 2.93967 11.3272 2.49131 11.0889C2.34266 11.0076 2.20904 10.9014 2.09629 10.7749C2.04634 10.7287 2.00648 10.6726 1.97923 10.6102C1.95197 10.5479 1.9379 10.4805 1.9379 10.4124C1.9379 10.3444 1.95197 10.277 1.97923 10.2146C2.00648 10.1523 2.04634 10.0962 2.09629 10.0499C2.29948 9.82933 2.55555 9.66413 2.84031 9.56994C3.23789 9.42534 3.6583 9.35352 4.08134 9.35794C4.6211 9.3504 5.15328 9.48526 5.62431 9.74894C5.7645 9.83321 5.89154 9.93767 6.00132 10.0589C6.05125 10.1033 6.09113 10.1579 6.11832 10.2189C6.14552 10.2799 6.15941 10.346 6.15903 10.4128C6.15866 10.4797 6.14401 10.5456 6.11613 10.6063C6.08824 10.667 6.04772 10.7211 5.99729 10.7649H5.99632ZM12.4468 8.58245C13.2907 8.58245 14.1169 8.34038 14.8273 7.88496C14.9026 7.82671 14.989 7.78443 15.0812 7.76072C15.1735 7.73701 15.2695 7.73236 15.3636 7.74705C15.4577 7.76175 15.5478 7.79548 15.6284 7.84619C15.7089 7.8969 15.7783 7.96351 15.8323 8.04196C15.8862 8.1208 15.9236 8.20974 15.9422 8.30343C15.9608 8.39711 15.9602 8.49359 15.9405 8.58705C15.9208 8.68051 15.8823 8.769 15.8275 8.84718C15.7726 8.92537 15.7025 8.99163 15.6213 9.04196C14.6766 9.67779 13.5599 10.009 12.4213 9.99096C11.3032 10.0014 10.2081 9.67302 9.2803 9.04896C9.19702 8.99965 9.12474 8.93377 9.06796 8.85539C9.01118 8.77702 8.9711 8.68782 8.95019 8.59332C8.92929 8.49882 8.92802 8.40104 8.94644 8.30603C8.96486 8.21102 9.0026 8.1208 9.05731 8.04096C9.11135 7.962 9.181 7.89496 9.26196 7.84397C9.34293 7.79298 9.43346 7.75913 9.52801 7.74451C9.62257 7.72989 9.71912 7.73481 9.81171 7.75897C9.90429 7.78313 9.99096 7.82601 10.0663 7.88496C10.7768 8.34038 11.6029 8.58245 12.4468 8.58245ZM0.847301 14.748C1.77438 15.3711 2.86831 15.6991 3.9853 15.689C5.11372 15.7065 6.22111 15.3827 7.1623 14.76C7.24779 14.7112 7.32232 14.6452 7.38111 14.5663C7.43991 14.4874 7.48172 14.3971 7.50398 14.3013C7.52623 14.2054 7.5284 14.1059 7.51039 14.0092C7.49238 13.9124 7.45456 13.8204 7.3993 13.739C7.34392 13.6594 7.27279 13.5921 7.19026 13.5412C7.10772 13.4903 7.01554 13.457 6.91957 13.4433C6.82359 13.4296 6.72586 13.4358 6.6324 13.4616C6.53893 13.4873 6.45172 13.532 6.37629 13.593C5.66874 14.0412 4.84841 14.2792 4.01081 14.2792C3.17322 14.2792 2.35288 14.0412 1.64534 13.593C1.56972 13.5323 1.48245 13.4878 1.38893 13.4623C1.2954 13.4368 1.19764 13.4308 1.1017 13.4447C1.00576 13.4586 0.91365 13.492 0.831188 13.543C0.748726 13.594 0.677646 13.6613 0.622326 13.741C0.568013 13.8209 0.530627 13.9112 0.512523 14.0061C0.49442 14.1011 0.49596 14.1988 0.51704 14.2931C0.53812 14.3875 0.578343 14.4765 0.635143 14.5547C0.691943 14.6329 0.764115 14.6987 0.847301 14.748ZM12.4448 14.295C13.2937 14.295 14.1237 14.0449 14.8313 13.5759C14.9087 13.5202 14.9965 13.4804 15.0895 13.4591C15.1825 13.4377 15.2788 13.4351 15.3728 13.4515C15.4668 13.4679 15.5566 13.503 15.6369 13.5546C15.7172 13.6061 15.7863 13.6733 15.8403 13.7519C15.8935 13.8298 15.9304 13.9175 15.9488 14.0099C15.9673 14.1023 15.9669 14.1975 15.9476 14.2898C15.9284 14.3821 15.8907 14.4695 15.8369 14.5468C15.7831 14.6242 15.7141 14.6899 15.6343 14.7399C14.8843 15.2578 14.0131 15.573 13.1053 15.6549C12.9442 15.6716 12.7831 15.6803 12.6481 15.6877L12.648 15.6877L12.6479 15.6877L12.6478 15.6877L12.6475 15.6877C12.5958 15.6906 12.5479 15.6932 12.5053 15.6959C11.3568 15.717 10.2294 15.3862 9.27431 14.7479C9.19139 14.6993 9.11938 14.6341 9.06276 14.5565C9.00613 14.4788 8.96609 14.3903 8.94517 14.2965C8.92425 14.2027 8.92289 14.1055 8.94114 14.0112C8.9594 13.9168 8.99691 13.8272 9.05131 13.7479C9.10549 13.6697 9.17474 13.6031 9.25499 13.552C9.33524 13.5009 9.42488 13.4663 9.51866 13.4503C9.61244 13.4343 9.70847 13.4372 9.80113 13.4587C9.8938 13.4803 9.98123 13.5202 10.0583 13.5759C10.7659 14.0449 11.5959 14.295 12.4448 14.295ZM6.37532 16.405C5.66782 16.8533 4.84747 17.0914 4.00985 17.0914C3.17222 17.0914 2.35181 16.8533 1.64431 16.405C1.56857 16.3444 1.4812 16.3001 1.38759 16.2747C1.29399 16.2494 1.19619 16.2435 1.10024 16.2576C1.00429 16.2717 0.91224 16.3053 0.829853 16.3565C0.747467 16.4077 0.676521 16.4752 0.621357 16.555C0.567273 16.6351 0.530103 16.7255 0.512226 16.8205C0.49435 16.9155 0.496092 17.0132 0.517353 17.1075C0.538614 17.2018 0.57897 17.2908 0.635883 17.3689C0.692797 17.4471 0.76511 17.5128 0.848347 17.562C1.77588 18.1848 2.87012 18.5125 3.98732 18.502C5.11551 18.519 6.22255 18.1948 7.16335 17.572C7.24887 17.5232 7.32332 17.4573 7.3821 17.3783C7.44088 17.2993 7.48273 17.209 7.5049 17.1131C7.52707 17.0172 7.52911 16.9178 7.51094 16.821C7.49278 16.7242 7.45476 16.6323 7.39931 16.551C7.34393 16.4712 7.2727 16.4038 7.19008 16.3528C7.10746 16.3019 7.01525 16.2685 6.91915 16.2548C6.82305 16.2411 6.72518 16.2474 6.63161 16.2732C6.53804 16.299 6.45078 16.3439 6.37532 16.405ZM12.4505 17.0919C13.2944 17.091 14.1204 16.8481 14.8303 16.3919C14.906 16.3334 14.9928 16.291 15.0855 16.2673C15.1782 16.2436 15.2747 16.2392 15.3692 16.2543C15.4636 16.2694 15.554 16.3036 15.6347 16.355C15.7154 16.4064 15.7847 16.4737 15.8383 16.5529C15.892 16.6321 15.929 16.7214 15.9472 16.8153C15.9653 16.9093 15.9642 17.0059 15.9439 17.0994C15.9236 17.1929 15.8846 17.2813 15.8291 17.3593C15.7737 17.4372 15.703 17.5031 15.6213 17.5529C14.6765 18.1882 13.5597 18.5187 12.4213 18.4999C11.302 18.5102 10.2059 18.1811 9.27732 17.5559C9.19486 17.5077 9.12315 17.4431 9.0666 17.3661C9.01005 17.2891 8.96982 17.2013 8.94847 17.1082C8.92711 17.0151 8.92505 16.9186 8.94239 16.8247C8.95973 16.7307 8.99613 16.6413 9.04933 16.5619C9.10312 16.4812 9.17296 16.4125 9.25453 16.3601C9.33609 16.3076 9.42762 16.2725 9.52336 16.257C9.61909 16.2416 9.71698 16.246 9.81092 16.2701C9.90487 16.2941 9.99283 16.3373 10.0693 16.3969C10.7802 16.8516 11.6067 17.0928 12.4505 17.0919ZM14.8453 10.723C14.7551 10.7876 14.6613 10.8471 14.5643 10.901C13.8706 11.2826 13.0864 11.469 12.2951 11.4401C11.5039 11.4112 10.7353 11.1682 10.0713 10.737C9.98874 10.6762 9.89452 10.6331 9.79456 10.6104C9.69459 10.5877 9.59101 10.5859 9.4903 10.605C9.35635 10.629 9.23296 10.6935 9.13663 10.7896C9.0403 10.8858 8.97563 11.009 8.9513 11.143C8.91714 11.284 8.92879 11.4322 8.98453 11.5661C9.04027 11.7001 9.13719 11.8128 9.26129 11.888C10.2408 12.5394 11.3974 12.8729 12.5733 12.843C12.624 12.8381 12.6859 12.8332 12.7556 12.8278L12.7558 12.8278C12.9282 12.8144 13.1485 12.7973 13.3663 12.766C14.1818 12.6578 14.9596 12.3557 15.6343 11.885C15.7137 11.8344 15.782 11.7684 15.8353 11.6908C15.8885 11.6132 15.9256 11.5257 15.9443 11.4335C15.9629 11.3412 15.9628 11.2462 15.9439 11.154C15.925 11.0618 15.8877 10.9744 15.8343 10.897C15.7817 10.8195 15.7141 10.7534 15.6354 10.7025C15.5568 10.6517 15.4688 10.6171 15.3766 10.6009C15.2844 10.5847 15.1898 10.5871 15.0986 10.6081C15.0073 10.6291 14.9212 10.6681 14.8453 10.723Z" fill="url(#paint0_linear_3_987)"/>
<defs>
<linearGradient id="paint0_linear_3_987" x1="5.45353" y1="2.75032" x2="11.7518" y2="18.9551" gradientUnits="userSpaceOnUse">
<stop stop-color="#00BCC8"/>
<stop offset="1" stop-color="#2787BD"/>
</linearGradient>
</defs>
</svg>
