<svg width="16" height="19" viewBox="0 0 16 19" fill="none" xmlns="http://www.w3.org/2000/svg">
<path fill-rule="evenodd" clip-rule="evenodd" d="M1.82843 3.72473C1.67627 3.7474 1.52088 3.71827 1.38727 3.64201C1.25569 3.57165 1.1511 3.45972 1.08978 3.3237C1.02846 3.18768 1.01387 3.0352 1.04828 2.89001C1.08424 2.75506 1.15295 2.63107 1.24829 2.52902C1.69529 2.05302 2.15229 1.591 2.61029 1.129C2.92207 0.80632 3.33152 0.595459 3.77527 0.529022C3.80319 0.52214 3.83032 0.512401 3.85626 0.5H4.3833C4.76977 0.568037 5.13271 0.732829 5.43829 0.979004C5.61313 1.13772 5.78015 1.30489 5.94672 1.47159L5.94672 1.4716L5.94673 1.47161C5.9869 1.51181 6.02704 1.55199 6.06726 1.59201C6.36726 1.89334 6.66729 2.19634 6.96729 2.50101C7.03879 2.56417 7.09672 2.64117 7.13764 2.72736C7.17855 2.81354 7.20158 2.90714 7.20532 3.00247C7.20906 3.0978 7.19346 3.19289 7.15942 3.28201C7.12539 3.37114 7.0736 3.45244 7.00726 3.52101C6.93985 3.5907 6.85868 3.64562 6.76892 3.6823C6.67916 3.71897 6.58277 3.73661 6.48584 3.73407C6.38891 3.73153 6.29359 3.70888 6.20587 3.66756C6.11816 3.62623 6.03994 3.56714 5.97626 3.49402C5.68312 3.20288 5.39131 2.90951 5.09966 2.61629C4.95353 2.46939 4.80745 2.32252 4.66126 2.17599C4.59518 2.09067 4.51047 2.02161 4.41358 1.97409C4.31668 1.92657 4.21022 1.90186 4.1023 1.90186C3.99438 1.90186 3.88785 1.92657 3.79096 1.97409C3.69406 2.02161 3.60935 2.09067 3.54327 2.17599L3.28013 2.44539C2.93025 2.80375 2.58049 3.16199 2.22626 3.51701C2.12068 3.62891 1.98059 3.70206 1.82843 3.72473ZM12.3163 2.248C13.3015 2.20122 14.2743 2.48259 15.0823 3.048C15.3883 3.24925 15.6335 3.53028 15.7914 3.86073C15.9493 4.19118 16.014 4.5585 15.9783 4.923C15.9194 5.42305 15.6732 5.8822 15.2893 6.208C14.7103 6.7196 13.9866 7.03864 13.2183 7.121C12.2172 7.29495 11.1867 7.12618 10.2933 6.642C9.97335 6.45994 9.68552 6.22649 9.44133 5.951C9.13503 5.61256 8.96457 5.17287 8.96272 4.71641C8.96088 4.25995 9.12777 3.8189 9.43132 3.47799C9.94863 2.88633 10.6558 2.49317 11.4313 2.36599C11.6831 2.31373 11.9408 2.28748 12.1351 2.26769C12.2047 2.26059 12.2662 2.25433 12.3163 2.248ZM13.2313 5.688C13.6625 5.623 14.0638 5.42878 14.3823 5.13099H14.3813C14.4456 5.08281 14.4977 5.02035 14.5337 4.94854C14.5696 4.87674 14.5884 4.79756 14.5885 4.71725C14.5886 4.63695 14.57 4.55771 14.5342 4.48582C14.4984 4.41393 14.4465 4.35135 14.3823 4.30301C14.2408 4.16392 14.0768 4.04964 13.8973 3.96499C13.4667 3.76399 12.9982 3.65701 12.523 3.65115C12.0478 3.64529 11.5768 3.74068 11.1413 3.931C10.9382 4.01959 10.7516 4.14199 10.5893 4.293C10.5227 4.34044 10.4682 4.40302 10.4305 4.4756C10.3927 4.54817 10.3728 4.62866 10.3722 4.71046C10.3716 4.79226 10.3904 4.87304 10.4271 4.94615C10.4638 5.01926 10.5174 5.0826 10.5833 5.13099C10.6839 5.22863 10.7961 5.3136 10.9173 5.384C11.4321 5.65848 12.0103 5.79231 12.5933 5.772C12.6289 5.76762 12.6723 5.76323 12.7212 5.75829L12.7213 5.75828L12.7213 5.75828L12.7213 5.75828L12.7214 5.75827L12.7214 5.75827L12.7214 5.75827L12.7214 5.75827C12.8623 5.74402 13.0496 5.72509 13.2313 5.688ZM6.64432 8.74002C5.8356 8.17439 4.86209 7.89303 3.87631 7.94003C3.82625 7.94639 3.76474 7.95267 3.69502 7.9598L3.69501 7.9598C3.50152 7.97958 3.24472 8.00583 2.99332 8.05802C2.21747 8.18573 1.51032 8.57961 0.993317 9.17202C0.696932 9.51444 0.533783 9.95216 0.533783 10.405C0.533783 10.8579 0.696932 11.2956 0.993317 11.638C1.30258 12.008 1.69679 12.2976 2.1423 12.482C3.04211 12.8673 4.03771 12.9702 4.99728 12.777C5.7018 12.6695 6.35894 12.3564 6.88632 11.877C7.2514 11.5569 7.48623 11.1139 7.5463 10.632C7.58454 10.2642 7.52056 9.89296 7.36142 9.55915C7.20228 9.22533 6.95416 8.94189 6.64432 8.74002ZM5.99631 10.759C5.83141 10.9322 5.6353 11.0726 5.4183 11.173C4.95615 11.3833 4.45182 11.4846 3.94431 11.469C3.43679 11.4534 2.93967 11.3213 2.4913 11.083C2.34265 11.0017 2.20903 10.8955 2.09628 10.769C2.04633 10.7228 2.00648 10.6667 1.97922 10.6043C1.95196 10.5419 1.9379 10.4746 1.9379 10.4065C1.9379 10.3385 1.95196 10.2711 1.97922 10.2087C2.00648 10.1463 2.04633 10.0903 2.09628 10.044C2.29947 9.82341 2.55555 9.65822 2.8403 9.56403C3.23788 9.41942 3.65829 9.3476 4.08133 9.35202C4.62109 9.34448 5.15327 9.47934 5.6243 9.74302C5.76449 9.8273 5.89154 9.93176 6.00131 10.053C6.05124 10.0974 6.09112 10.1519 6.11832 10.213C6.14551 10.274 6.15941 10.3401 6.15903 10.4069C6.15865 10.4737 6.144 10.5397 6.11612 10.6004C6.08824 10.6611 6.04771 10.7152 5.99728 10.759H5.99631ZM12.4468 8.5765C13.2907 8.5765 14.1168 8.33444 14.8273 7.87902C14.9026 7.82076 14.989 7.77848 15.0812 7.75477C15.1734 7.73106 15.2695 7.72641 15.3636 7.74111C15.4577 7.7558 15.5478 7.78954 15.6283 7.84024C15.7089 7.89095 15.7783 7.95757 15.8323 8.03601C15.8862 8.11485 15.9236 8.20379 15.9422 8.29748C15.9608 8.39117 15.9602 8.48765 15.9405 8.5811C15.9208 8.67456 15.8823 8.76305 15.8275 8.84124C15.7726 8.91942 15.7025 8.98568 15.6213 9.03601C14.6766 9.67184 13.5599 10.003 12.4213 9.98501C11.3032 9.99549 10.2081 9.66708 9.2803 9.04302C9.19702 8.99371 9.12474 8.92782 9.06795 8.84944C9.01117 8.77107 8.97109 8.68187 8.95019 8.58737C8.92928 8.49288 8.92801 8.39509 8.94643 8.30008C8.96486 8.20507 9.0026 8.11485 9.0573 8.03501C9.11134 7.95605 9.18099 7.88901 9.26195 7.83802C9.34292 7.78703 9.43345 7.75319 9.52801 7.73857C9.62256 7.72395 9.71912 7.72887 9.8117 7.75302C9.90428 7.77718 9.99095 7.82006 10.0663 7.87902C10.7768 8.33444 11.6029 8.5765 12.4468 8.5765ZM0.847301 14.742C1.77438 15.3651 2.86831 15.6932 3.9853 15.683C5.11372 15.7005 6.22111 15.3767 7.1623 14.754C7.24779 14.7052 7.32232 14.6393 7.38111 14.5604C7.43991 14.4814 7.48172 14.3912 7.50398 14.2953C7.52623 14.1994 7.5284 14.1 7.51039 14.0032C7.49238 13.9065 7.45456 13.8145 7.3993 13.733C7.34392 13.6534 7.27279 13.5861 7.19026 13.5353C7.10772 13.4844 7.01554 13.4511 6.91957 13.4374C6.82359 13.4237 6.72586 13.4299 6.6324 13.4556C6.53893 13.4814 6.45172 13.5261 6.37629 13.587C5.66874 14.0353 4.84841 14.2733 4.01081 14.2733C3.17322 14.2733 2.35288 14.0353 1.64534 13.587C1.56972 13.5263 1.48245 13.4819 1.38893 13.4564C1.2954 13.4309 1.19764 13.4249 1.1017 13.4388C1.00575 13.4526 0.91365 13.4861 0.831188 13.5371C0.748726 13.588 0.677646 13.6554 0.622326 13.735C0.568013 13.815 0.530627 13.9052 0.512523 14.0002C0.49442 14.0952 0.49596 14.1928 0.51704 14.2872C0.53812 14.3815 0.578343 14.4705 0.635143 14.5488C0.691943 14.627 0.764115 14.6928 0.847301 14.742ZM12.4448 14.289C13.2937 14.289 14.1237 14.0389 14.8313 13.57C14.9087 13.5142 14.9965 13.4745 15.0895 13.4531C15.1825 13.4318 15.2789 13.4292 15.3729 13.4456C15.4669 13.462 15.5566 13.497 15.6369 13.5486C15.7172 13.6002 15.7864 13.6673 15.8403 13.746C15.8935 13.8238 15.9304 13.9116 15.9488 14.004C15.9673 14.0964 15.9669 14.1916 15.9477 14.2839C15.9284 14.3761 15.8907 14.4635 15.8369 14.5409C15.7831 14.6182 15.7141 14.6839 15.6343 14.734C14.8843 15.2519 14.0131 15.5671 13.1053 15.649C12.9442 15.6656 12.7831 15.6744 12.6481 15.6818L12.648 15.6818C12.5961 15.6846 12.548 15.6872 12.5053 15.69C11.3568 15.711 10.2294 15.3802 9.27431 14.742C9.1914 14.6934 9.11939 14.6282 9.06277 14.5505C9.00614 14.4728 8.9661 14.3843 8.94518 14.2905C8.92426 14.1967 8.9229 14.0996 8.94115 14.0052C8.95941 13.9108 8.99692 13.8212 9.05132 13.742C9.1055 13.6638 9.17474 13.5972 9.255 13.5461C9.33525 13.495 9.42488 13.4604 9.51867 13.4444C9.61245 13.4284 9.70847 13.4312 9.80114 13.4528C9.8938 13.4744 9.98124 13.5142 10.0583 13.57C10.7659 14.0389 11.5959 14.289 12.4448 14.289ZM6.37532 16.399C5.66782 16.8474 4.84747 17.0855 4.00985 17.0855C3.17222 17.0855 2.35181 16.8474 1.64431 16.399C1.56857 16.3385 1.4812 16.2941 1.38759 16.2688C1.29399 16.2434 1.19619 16.2376 1.10024 16.2517C1.00429 16.2657 0.91224 16.2994 0.829853 16.3506C0.747467 16.4017 0.676521 16.4693 0.621357 16.549C0.567273 16.6292 0.530103 16.7195 0.512226 16.8145C0.49435 16.9095 0.496092 17.0072 0.517353 17.1015C0.538614 17.1959 0.57897 17.2848 0.635883 17.363C0.692797 17.4411 0.76511 17.5068 0.848347 17.556C1.77588 18.1789 2.87012 18.5065 3.98732 18.496C5.11551 18.5131 6.22255 18.1889 7.16335 17.566C7.24887 17.5173 7.32332 17.4513 7.3821 17.3723C7.44088 17.2934 7.48273 17.2031 7.5049 17.1072C7.52707 17.0113 7.52911 16.9118 7.51094 16.8151C7.49278 16.7183 7.45476 16.6264 7.39931 16.545C7.34393 16.4653 7.2727 16.3978 7.19008 16.3469C7.10746 16.2959 7.01525 16.2626 6.91915 16.2489C6.82305 16.2352 6.72518 16.2414 6.63161 16.2673C6.53804 16.2931 6.45078 16.3379 6.37532 16.399ZM12.4505 17.086C13.2944 17.0851 14.1204 16.8422 14.8303 16.386C14.906 16.3275 14.9928 16.2851 15.0855 16.2614C15.1782 16.2377 15.2747 16.2333 15.3692 16.2484C15.4636 16.2634 15.554 16.2977 15.6347 16.3491C15.7154 16.4005 15.7847 16.4678 15.8383 16.547C15.892 16.6262 15.929 16.7155 15.9472 16.8094C15.9653 16.9034 15.9642 17 15.9439 17.0935C15.9236 17.187 15.8846 17.2754 15.8291 17.3533C15.7737 17.4313 15.703 17.4972 15.6213 17.547C14.6765 18.1823 13.5597 18.5128 12.4213 18.494C11.302 18.5043 10.2059 18.1751 9.27732 17.55C9.19486 17.5018 9.12315 17.4372 9.0666 17.3602C9.01005 17.2832 8.96982 17.1954 8.94847 17.1023C8.92711 17.0092 8.92505 16.9127 8.94239 16.8187C8.95973 16.7248 8.99613 16.6354 9.04933 16.556C9.10312 16.4753 9.17296 16.4066 9.25453 16.3541C9.33609 16.3017 9.42762 16.2666 9.52336 16.2511C9.61909 16.2356 9.71698 16.2401 9.81092 16.2641C9.90487 16.2882 9.99283 16.3314 10.0693 16.391C10.7802 16.8457 11.6067 17.0869 12.4505 17.086ZM14.8453 10.717C14.7551 10.7817 14.6613 10.8411 14.5643 10.895C13.8706 11.2767 13.0864 11.463 12.2951 11.4341C11.5039 11.4053 10.7353 11.1623 10.0713 10.731C9.98874 10.6703 9.89451 10.6272 9.79455 10.6045C9.69459 10.5818 9.59101 10.5799 9.49029 10.599C9.35634 10.6231 9.23295 10.6875 9.13662 10.7837C9.04029 10.8798 8.97563 11.0031 8.95129 11.137C8.91714 11.278 8.92878 11.4262 8.98452 11.5602C9.04026 11.6941 9.13719 11.8069 9.26129 11.882C10.2408 12.5334 11.3973 12.8669 12.5733 12.837C12.624 12.8321 12.6859 12.8273 12.7556 12.8219L12.7558 12.8219C12.9282 12.8085 13.1485 12.7913 13.3663 12.76C14.1818 12.6518 14.9596 12.3497 15.6343 11.879C15.7137 11.8285 15.782 11.7624 15.8353 11.6848C15.8885 11.6073 15.9256 11.5197 15.9443 11.4275C15.9629 11.3353 15.9628 11.2402 15.9439 11.1481C15.925 11.0559 15.8877 10.9684 15.8343 10.891C15.7817 10.8136 15.7141 10.7475 15.6354 10.6966C15.5568 10.6458 15.4688 10.6112 15.3766 10.595C15.2844 10.5787 15.1898 10.5812 15.0986 10.6021C15.0073 10.6231 14.9212 10.6622 14.8453 10.717ZM3.48831 6.60401C3.40525 6.45882 3.35762 6.29608 3.3493 6.12902C3.33421 5.86257 3.33849 5.59897 3.34278 5.33435C3.34418 5.24839 3.34558 5.16232 3.34631 5.07601H3.3533C3.3533 4.94531 3.3513 4.8146 3.3493 4.68394C3.3453 4.42272 3.3413 4.16165 3.3533 3.90102C3.36437 3.7477 3.42736 3.60272 3.53189 3.49001C3.63642 3.3773 3.77626 3.30358 3.92831 3.28101C4.07989 3.25616 4.23544 3.28186 4.37097 3.35415C4.5065 3.42643 4.6145 3.5413 4.67831 3.68102C4.71229 3.74898 4.73201 3.82317 4.7363 3.89902C4.73658 3.9366 4.73687 3.97417 4.73716 4.01174C4.74292 4.76317 4.74868 5.51458 4.7363 6.26601C4.72898 6.40769 4.67545 6.54307 4.58389 6.65143C4.49233 6.75979 4.36778 6.83517 4.22931 6.86602C4.09407 6.90838 3.94876 6.90575 3.81515 6.85851C3.68155 6.81127 3.56686 6.72196 3.48831 6.60401Z" fill="url(#paint0_linear_3_974)"/>
<defs>
<linearGradient id="paint0_linear_3_974" x1="5.45353" y1="2.74958" x2="11.7482" y2="18.9504" gradientUnits="userSpaceOnUse">
<stop stop-color="#00BCC8"/>
<stop offset="1" stop-color="#2787BD"/>
</linearGradient>
</defs>
</svg>
