<svg width="19" height="17" viewBox="0 0 19 17" fill="none" xmlns="http://www.w3.org/2000/svg">
<path fill-rule="evenodd" clip-rule="evenodd" d="M3.79223 2.59153C3.87754 2.59349 3.96241 2.57853 4.04192 2.54755C4.12144 2.51656 4.19404 2.47014 4.25553 2.41097C4.31702 2.3518 4.36621 2.28104 4.40023 2.20278C4.43425 2.12451 4.45242 2.04027 4.45374 1.95494C4.45215 1.86955 4.46747 1.78468 4.49885 1.70524C4.53024 1.62581 4.57709 1.55339 4.63662 1.49214C4.69614 1.4309 4.7672 1.38204 4.84571 1.34841C4.92422 1.31478 5.00859 1.29703 5.094 1.29619C5.1808 1.29481 5.26697 1.31092 5.34742 1.34356C5.42786 1.3762 5.50091 1.4247 5.56221 1.48617C5.62351 1.54764 5.67184 1.62082 5.70425 1.70135C5.73667 1.78189 5.75251 1.86814 5.75089 1.95494C5.75221 2.04027 5.77038 2.12451 5.8044 2.20278C5.83842 2.28104 5.88761 2.3518 5.9491 2.41097C6.01059 2.47014 6.08319 2.51656 6.16271 2.54755C6.24222 2.57853 6.32709 2.59349 6.4124 2.59153C6.49903 2.58979 6.58442 2.57064 6.66351 2.53525C6.7426 2.49987 6.8138 2.44896 6.87283 2.38554C6.93186 2.32211 6.97753 2.24744 7.00715 2.16601C7.03678 2.08458 7.04975 1.99805 7.04527 1.91152C7.04174 1.61595 6.97018 1.32519 6.83606 1.06177C6.70195 0.798357 6.50893 0.569384 6.27199 0.392646C6.0002 0.198213 5.68984 0.0643286 5.36191 0H4.84362C4.80948 0.0130486 4.77465 0.0241067 4.73925 0.0332139C4.3009 0.118766 3.905 0.351787 3.61742 0.693488C3.32984 1.03519 3.16791 1.46501 3.15846 1.91152C3.15398 1.99813 3.16695 2.08475 3.19663 2.16624C3.22631 2.24772 3.27211 2.32244 3.33124 2.38588C3.39037 2.44932 3.46164 2.5002 3.54084 2.53554C3.62004 2.57087 3.70552 2.58991 3.79223 2.59153ZM15.4673 6.115C15.251 5.73176 14.9396 5.41077 14.5631 5.18304C14.1681 4.92945 13.7075 4.79707 13.2382 4.80235C10.2737 4.79496 7.30893 4.79496 4.34382 4.80235C3.66873 4.80958 3.0234 5.08129 2.54644 5.55911C2.06948 6.03693 1.79896 6.6828 1.79295 7.3579C1.78556 9.15088 1.78556 10.9438 1.79295 12.7368C1.79803 13.4148 2.06978 14.0635 2.54937 14.5428C3.02896 15.022 3.67791 15.2933 4.35589 15.2979C5.54319 15.3003 5.55253 15.3002 5.61161 15.2995C5.66585 15.2989 5.76203 15.2979 6.85038 15.2979C6.93105 15.2946 7.01184 15.2995 7.0915 15.3127C7.24929 15.3449 7.38942 15.4348 7.48443 15.5648C7.57943 15.6948 7.6225 15.8556 7.60522 16.0157C7.58754 16.1789 7.50854 16.3292 7.38417 16.4362C7.25979 16.5433 7.09937 16.5991 6.93541 16.5923H4.46021C3.51937 16.6103 2.60392 16.2863 1.88396 15.6803C1.16401 15.0744 0.688534 14.2277 0.545709 13.2976C0.512579 13.0837 0.497369 12.8674 0.500371 12.6509V7.43364C0.488684 6.49558 0.816797 5.58498 1.42405 4.86991C2.03129 4.15483 2.87672 3.68354 3.80428 3.5431C4.01833 3.5112 4.23457 3.49668 4.45097 3.49968H13.1356C14.0767 3.48243 14.992 3.80698 15.712 4.41314C16.432 5.0193 16.9078 5.86595 17.0512 6.79614C17.0604 6.84872 17.0705 6.90131 17.0806 6.95389L17.0955 7.03174V7.51771C17.0921 7.52515 17.0884 7.53258 17.0848 7.54004C17.0767 7.55668 17.0686 7.57346 17.0622 7.59068C17.0135 7.73524 16.9159 7.85827 16.7862 7.93856C16.6565 8.01884 16.5029 8.05136 16.3518 8.03047C16.1953 8.00596 16.053 7.92565 15.9511 7.8044C15.8492 7.68316 15.7946 7.52917 15.7974 7.37082C15.7972 6.93078 15.6835 6.49825 15.4673 6.115ZM13.6225 14.5052L13.1402 13.3781C13.0893 13.2534 13.0316 13.1316 12.9675 13.0131C12.9139 12.9124 12.8521 12.8163 12.7827 12.7258C12.7206 12.6461 12.6493 12.5742 12.5702 12.5114C12.4955 12.4527 12.4146 12.4022 12.3291 12.3609C12.4962 12.3095 12.6554 12.2351 12.8021 12.14C12.9359 12.0531 13.054 11.9441 13.1513 11.8176C13.2473 11.6907 13.3198 11.5477 13.3657 11.3953C13.4161 11.2254 13.4407 11.0488 13.4386 10.8715C13.4424 10.6659 13.4079 10.4613 13.337 10.2682C13.2722 10.0974 13.1721 9.94223 13.0432 9.81275C12.9083 9.68018 12.7493 9.57448 12.5748 9.50137C12.3763 9.41785 12.1675 9.36129 11.9539 9.33321C11.8745 9.32459 11.7861 9.31721 11.6888 9.31105C11.5915 9.30489 11.4683 9.3018 11.3192 9.3018H9.841C9.75125 9.2989 9.66365 9.32955 9.59525 9.38774C9.55969 9.42406 9.53234 9.46764 9.51512 9.51546C9.4979 9.56329 9.49119 9.61424 9.49544 9.6649V14.8591C9.4953 14.8878 9.50472 14.9157 9.52223 14.9385C9.54658 14.9664 9.57881 14.9864 9.61465 14.9958C9.67309 15.0134 9.7331 15.0251 9.79386 15.0309C9.88593 15.0404 9.97851 15.0448 10.0711 15.0439C10.1655 15.045 10.2599 15.0407 10.3538 15.0309C10.4136 15.025 10.4727 15.0133 10.5302 14.9958C10.5657 14.9856 10.5977 14.9658 10.6226 14.9385C10.6413 14.9163 10.6514 14.8881 10.6513 14.8591V12.6796H11.0134C11.1251 12.6774 11.2362 12.6969 11.3405 12.7369C11.4347 12.7753 11.5197 12.8332 11.5899 12.9069C11.6681 12.9897 11.7343 13.083 11.7868 13.1841C11.8483 13.2962 11.9099 13.4243 11.9715 13.5684L12.4843 14.8462C12.4943 14.879 12.5093 14.9101 12.5286 14.9385C12.5523 14.9682 12.5846 14.9898 12.621 15.0004C12.6774 15.0194 12.7362 15.0306 12.7956 15.0337C12.8695 15.0399 12.9684 15.0429 13.0922 15.0429C13.2394 15.0429 13.3558 15.0399 13.4414 15.0337C13.5074 15.031 13.5728 15.0204 13.6364 15.0023C13.6702 14.9948 13.7002 14.975 13.7204 14.9469C13.733 14.9213 13.739 14.893 13.738 14.8646C13.736 14.8231 13.7285 14.7822 13.7158 14.7427C13.6979 14.6965 13.6669 14.6173 13.6225 14.5052ZM12.1729 11.327C12.1324 11.4265 12.0691 11.5151 11.9881 11.5857C11.8976 11.6624 11.7923 11.7196 11.6787 11.7538C11.5382 11.7961 11.392 11.8164 11.2453 11.8139H10.6531V10.1915H11.1751C11.279 10.1901 11.383 10.1944 11.4865 10.2044C11.5543 10.2118 11.6216 10.2236 11.6879 10.2396C11.8576 10.2764 12.0075 10.3752 12.1082 10.5167C12.1975 10.6597 12.2422 10.826 12.2367 10.9944C12.2369 11.1081 12.2149 11.2208 12.172 11.3261L12.1729 11.327ZM18.4009 12.0024C18.3502 11.758 18.2563 11.5246 18.1237 11.3131C17.9985 11.1206 17.8278 10.9619 17.6267 10.8512C17.399 10.7319 17.1444 10.6733 16.8875 10.6812C16.756 10.6806 16.6248 10.6954 16.4968 10.7255C16.3731 10.7556 16.2536 10.8009 16.1411 10.8604C16.0212 10.9242 15.9079 10.9997 15.8029 11.0859C15.6843 11.1831 15.5715 11.2871 15.4648 11.3972V10.9352C15.4654 10.9077 15.4577 10.8807 15.4426 10.8576C15.4229 10.8318 15.3958 10.8125 15.365 10.8022C15.3179 10.785 15.2689 10.7738 15.219 10.7689C15.1448 10.7608 15.0701 10.7572 14.9954 10.7579C14.9195 10.7571 14.8436 10.7608 14.7681 10.7689C14.7183 10.7738 14.6692 10.785 14.6222 10.8022C14.5913 10.8125 14.5642 10.8318 14.5445 10.8576C14.5294 10.8807 14.5217 10.9077 14.5224 10.9352V16.4436C14.5222 16.4723 14.5316 16.5002 14.5492 16.523C14.5736 16.5514 14.6057 16.5722 14.6416 16.5831C14.6966 16.6022 14.7536 16.6148 14.8115 16.6209C14.9011 16.6306 14.9912 16.635 15.0813 16.6339C15.1714 16.635 15.2616 16.6306 15.3511 16.6209C15.4091 16.6148 15.4661 16.6021 15.5211 16.5831C15.5569 16.5722 15.589 16.5513 15.6135 16.523C15.631 16.5002 15.6404 16.4723 15.6403 16.4436V14.5865C15.728 14.6713 15.8205 14.7508 15.9175 14.8249C16.0013 14.8897 16.091 14.9466 16.1854 14.9949C16.2733 15.0399 16.3664 15.074 16.4625 15.0965C16.5663 15.1195 16.6723 15.1307 16.7785 15.1298C17.0339 15.1348 17.2869 15.0804 17.5177 14.9709C17.732 14.8654 17.9173 14.709 18.0572 14.5153C18.2108 14.2983 18.3227 14.0546 18.387 13.7966C18.4656 13.4869 18.5035 13.1682 18.4997 12.8487C18.4984 12.5638 18.4653 12.2799 18.4009 12.0024ZM17.2848 13.3725C17.257 13.5138 17.2085 13.6502 17.1407 13.7772C17.0805 13.8912 16.9952 13.9901 16.8913 14.0664C16.7833 14.1422 16.6536 14.1811 16.5217 14.1772C16.3605 14.1742 16.205 14.1173 16.08 14.0156C15.9127 13.8806 15.7629 13.7255 15.6338 13.5536V12.2536C15.7109 12.149 15.7952 12.05 15.8861 11.9571C15.9568 11.8849 16.0344 11.8199 16.1179 11.763C16.1859 11.7165 16.2603 11.6801 16.3388 11.6549C16.4097 11.633 16.4835 11.6218 16.5577 11.6217C16.6894 11.6168 16.8191 11.6548 16.9273 11.7298C17.0289 11.8057 17.1106 11.9048 17.1657 12.019C17.2291 12.1494 17.2724 12.2886 17.2941 12.4319C17.3196 12.592 17.3323 12.754 17.332 12.9161C17.3327 13.0697 17.3175 13.223 17.2867 13.3734L17.2848 13.3725ZM11.496 2.54755C11.4164 2.57853 11.3316 2.59349 11.2463 2.59153C11.1596 2.58991 11.0741 2.57087 10.9949 2.53554C10.9157 2.5002 10.8443 2.44932 10.7852 2.38588C10.7261 2.32244 10.6804 2.24772 10.6507 2.16624C10.621 2.08475 10.608 1.99813 10.6125 1.91152C10.6219 1.46501 10.7839 1.03519 11.0715 0.693488C11.359 0.351787 11.7549 0.118766 12.1933 0.0332139C12.2287 0.0240897 12.2635 0.0130319 12.2977 0H12.8159C13.1439 0.0642735 13.4543 0.198162 13.726 0.392646C13.963 0.569384 14.156 0.798357 14.2901 1.06177C14.4242 1.32519 14.4958 1.61595 14.4993 1.91152C14.5038 1.99805 14.4908 2.08458 14.4612 2.16601C14.4316 2.24744 14.3859 2.32211 14.3269 2.38554C14.2678 2.44896 14.1966 2.49987 14.1176 2.53525C14.0385 2.57064 13.9531 2.58979 13.8664 2.59153C13.7811 2.59349 13.6963 2.57853 13.6167 2.54755C13.5372 2.51656 13.4646 2.47014 13.4031 2.41097C13.3416 2.3518 13.2925 2.28104 13.2584 2.20278C13.2244 2.12451 13.2062 2.04027 13.2049 1.95494C13.2066 1.86814 13.1907 1.78189 13.1583 1.70135C13.1259 1.62082 13.0775 1.54764 13.0162 1.48617C12.9549 1.4247 12.8819 1.3762 12.8015 1.34356C12.721 1.31092 12.6348 1.29481 12.548 1.29619C12.4626 1.29703 12.3783 1.31478 12.2998 1.34841C12.2212 1.38204 12.1502 1.4309 12.0907 1.49214C12.0311 1.55339 11.9843 1.62581 11.9529 1.70524C11.9215 1.78468 11.9062 1.86955 11.9078 1.95494C11.9065 2.04027 11.8883 2.12451 11.8543 2.20278C11.8202 2.28104 11.7711 2.3518 11.7096 2.41097C11.6481 2.47014 11.5755 2.51656 11.496 2.54755ZM4.74754 6.54579C4.53509 6.54575 4.33109 6.62904 4.1794 6.77778C4.02772 6.92653 3.94047 7.12888 3.93636 7.34129C3.93465 7.44797 3.95395 7.55394 3.99326 7.65313C4.03257 7.75232 4.0911 7.84279 4.16542 7.91935C4.23974 7.9959 4.32841 8.05701 4.42639 8.09923C4.52438 8.14146 4.62974 8.16393 4.73643 8.16538C4.84303 8.16648 4.9488 8.14655 5.0477 8.10673C5.1466 8.06692 5.23668 8.00798 5.31279 7.93333C5.3889 7.85868 5.44955 7.76979 5.49127 7.67168C5.53299 7.57357 5.55498 7.4682 5.55595 7.36159C5.55668 7.25488 5.53628 7.14909 5.49601 7.05026C5.45573 6.95143 5.39637 6.86154 5.32125 6.78573C5.24613 6.70993 5.15676 6.64967 5.0583 6.6085C4.95985 6.56732 4.85425 6.54603 4.74754 6.54579ZM7.22331 6.60771C7.3218 6.56682 7.42739 6.54579 7.53402 6.54579C7.74662 6.54625 7.95051 6.63013 8.10188 6.77942C8.25324 6.92871 8.33995 7.13148 8.34334 7.34405C8.34468 7.45074 8.32496 7.55662 8.28531 7.65567C8.24567 7.75472 8.18689 7.84497 8.11231 7.92127C8.03773 7.99756 7.94884 8.05842 7.85071 8.1003C7.75259 8.14219 7.64714 8.16429 7.54045 8.16538C7.43385 8.16611 7.32816 8.14581 7.2294 8.10566C7.13065 8.06551 7.04079 8.00632 6.96493 7.93142C6.88908 7.85651 6.82874 7.76733 6.78736 7.66909C6.74598 7.57084 6.72436 7.46543 6.72375 7.35883C6.72339 7.25219 6.7441 7.14652 6.78465 7.04789C6.82521 6.94927 6.88481 6.85963 6.96008 6.7841C7.03536 6.70856 7.12483 6.6486 7.22331 6.60771ZM9.51118 7.35883C9.51261 7.57134 9.59725 7.77482 9.74701 7.92561C9.89676 8.0764 10.0997 8.16248 10.3122 8.16538C10.4188 8.16623 10.5245 8.14609 10.6233 8.10606C10.7221 8.06602 10.8121 8.00686 10.888 7.93204C10.9639 7.85721 11.0244 7.76819 11.0659 7.66999C11.1074 7.57179 11.1291 7.46634 11.1298 7.35973C11.1303 7.25309 11.1097 7.14741 11.0693 7.04874C11.0289 6.95007 10.9693 6.86034 10.8942 6.78472C10.819 6.7091 10.7296 6.64911 10.6312 6.6081C10.5327 6.5671 10.4271 6.54591 10.3205 6.54579C10.2139 6.54591 10.1084 6.56704 10.0101 6.60799C9.91169 6.64894 9.82235 6.70891 9.74718 6.78444C9.672 6.85996 9.61247 6.94955 9.57197 7.04812C9.53147 7.14668 9.51082 7.25227 9.51118 7.35883ZM12.725 6.61115C12.823 6.56921 12.9283 6.547 13.0349 6.54579C13.1415 6.54482 13.2473 6.5649 13.3462 6.60489C13.445 6.64489 13.535 6.70401 13.611 6.77886C13.6869 6.8537 13.7474 6.94276 13.7888 7.04102C13.8303 7.13927 13.852 7.24475 13.8526 7.35139C13.8529 7.45807 13.8323 7.56382 13.7917 7.66249C13.7512 7.76117 13.6915 7.85085 13.6163 7.92646C13.541 8.00206 13.4516 8.06208 13.3531 8.10307C13.2546 8.14406 13.149 8.16526 13.0423 8.16538C12.8298 8.16469 12.626 8.08071 12.4747 7.93147C12.3234 7.78224 12.2366 7.57961 12.233 7.36712C12.2316 7.26052 12.2513 7.15467 12.2909 7.05568C12.3305 6.95669 12.3892 6.86647 12.4637 6.79019C12.5381 6.71391 12.627 6.65309 12.725 6.61115ZM4.74015 9.33324C4.52772 9.33517 4.32457 9.42029 4.17427 9.57042C4.02397 9.72054 3.93853 9.92365 3.93636 10.1361C3.93563 10.2428 3.95598 10.3485 3.99619 10.4473C4.0364 10.5462 4.09571 10.6361 4.17072 10.7119C4.24572 10.7878 4.33492 10.8482 4.43327 10.8895C4.53162 10.9308 4.63719 10.9523 4.74387 10.9528C4.85047 10.9529 4.95606 10.932 5.05458 10.8913C5.1531 10.8506 5.24261 10.7909 5.31804 10.7155C5.39346 10.6402 5.45332 10.5507 5.49414 10.4523C5.53497 10.3538 5.55595 10.2483 5.55595 10.1417C5.55571 10.0349 5.53441 9.92928 5.49324 9.83083C5.45207 9.73237 5.39187 9.64305 5.31606 9.56794C5.24026 9.49282 5.15036 9.4334 5.05153 9.39313C4.95271 9.35285 4.84686 9.33251 4.74015 9.33324ZM7.22669 9.39374C7.32536 9.35329 7.43105 9.33274 7.53769 9.33323C7.74996 9.33466 7.95323 9.41919 8.10384 9.56877C8.25446 9.71836 8.34044 9.92104 8.34333 10.1333C8.34431 10.24 8.32422 10.3458 8.28424 10.4447C8.24425 10.5437 8.18516 10.6337 8.11033 10.7097C8.03549 10.7858 7.94638 10.8463 7.84811 10.8879C7.74985 10.9294 7.64437 10.9511 7.53769 10.9519C7.43108 10.9522 7.32548 10.9316 7.22686 10.8911C7.12824 10.8506 7.03855 10.7911 6.96295 10.7159C6.88736 10.6408 6.82733 10.5514 6.78628 10.453C6.74524 10.3546 6.72399 10.2491 6.72375 10.1425C6.72387 10.0359 6.74505 9.93033 6.78606 9.83189C6.82706 9.73345 6.88705 9.64408 6.96267 9.56888C7.03829 9.4937 7.12802 9.43418 7.22669 9.39374ZM3.93637 12.9364C3.93853 13.1488 4.02398 13.3519 4.17428 13.502C4.32458 13.6521 4.52773 13.7373 4.74015 13.7393C4.84684 13.7399 4.9526 13.7195 5.05137 13.6791C5.15014 13.6388 5.24001 13.5794 5.31579 13.5043C5.39157 13.4292 5.4518 13.3399 5.49302 13.2415C5.53424 13.1431 5.55559 13.0375 5.55595 12.9308C5.55608 12.8242 5.53516 12.7186 5.49437 12.6201C5.45359 12.5215 5.39377 12.432 5.31832 12.3567C5.24288 12.2813 5.15333 12.2216 5.05476 12.1809C4.95618 12.1402 4.85051 12.1194 4.74388 12.1197C4.63716 12.12 4.53157 12.1415 4.43317 12.1828C4.33476 12.2241 4.24547 12.2844 4.17044 12.3603C4.09541 12.4362 4.03608 12.5261 3.99591 12.625C3.95575 12.7239 3.93551 12.8297 3.93637 12.9364ZM7.22331 12.1825C7.3218 12.1416 7.42739 12.1206 7.53402 12.1206C7.74662 12.1211 7.95051 12.205 8.10188 12.3542C8.25324 12.5035 8.33995 12.7063 8.34334 12.9188C8.34456 13.0255 8.32478 13.1313 8.28509 13.2303C8.2454 13.3293 8.18658 13.4195 8.11203 13.4958C8.03747 13.5721 7.94861 13.6329 7.85054 13.6749C7.75248 13.7168 7.6471 13.739 7.54045 13.7402C7.43385 13.7409 7.32816 13.7206 7.2294 13.6805C7.13065 13.6403 7.04079 13.5811 6.96493 13.5062C6.88908 13.4313 6.82874 13.3422 6.78736 13.2439C6.74598 13.1457 6.72436 13.0402 6.72375 12.9336C6.72339 12.827 6.7441 12.7213 6.78465 12.6227C6.82521 12.5241 6.88481 12.4344 6.96008 12.3589C7.03536 12.2833 7.12483 12.2234 7.22331 12.1825Z" fill="url(#paint0_linear_3_950)"/>
<defs>
<linearGradient id="paint0_linear_3_950" x1="6.257" y1="2.07925" x2="11.1184" y2="17.8118" gradientUnits="userSpaceOnUse">
<stop stop-color="#00BCC8"/>
<stop offset="1" stop-color="#2787BD"/>
</linearGradient>
</defs>
</svg>
